/* XPM */
static char * exit_open_3_xpm[] = {
"50 50 8 1",
" 	c #393939",
".	c #A3A3A3",
"+	c #666666",
"@	c #000000",
"#	c #505050",
"$	c #423E3E",
"%	c #F21212",
"&	c #363643",
"                                                  ",
"..................................................",
"..................................................",
"..................................................",
"..................................................",
"..................................................",
"..................................................",
"..................................................",
"                                                  ",
"   ++++++++++++++++++++++++++++++++++++++++++++   ",
"  ++++++..................................++++++  ",
" ++++++.@@@@@@@@@@@@@@@@@@@@@@@@@@@@@@@@@@.++++++ ",
" +++++.@................@.................@.+++++ ",
" ++++.@.................@..................@.++++ ",
" ++++.@.................@..................@.++++ ",
" +++.@..................@...................@.+++ ",
" +++.@.........@@@@@@@@@@@@@@@@@@@..........@.+++ ",
" +++.@.........@#################@..........@.+++ ",
" +++.@.....@@@.@#################@.@@@......@.+++ ",
" +++.@.....@$@.@#################@.@$@......@.+++ ",
" +++.@.....@@@.@#################@.@@@......@.+++ ",
" +++.@.........@#################@..........@.+++ ",
" +++.@.........@#################@..........@.+++ ",
" +++.@.........@#################@..........@.+++ ",
" +++.@.........@@@@@@@@@@@@@@@@@@@..........@.+++ ",
" +++.@...............@@@@@@@................@.+++ ",
" +++.@..................@...................@.+++ ",
" +++.@..................@...................@.+++ ",
"    .@..................@...................@.+++ ",
"  % .@..................@...................@.+++ ",
"    .@..................@...................@.+++ ",
" +++.@..................@...................@.+++ ",
" +++.@..................@...................@.+++ ",
" +++.@..................@...................@.+++ ",
" +++.@..................@...................@.+++ ",
" +++.@..................@...................@.+++ ",
" +++.@..................@...................@.+++ ",
" +++.@..................@...................@.+++ ",
" +++.@..................@...................@.+++ ",
" +++.@..................@...................@.+++ ",
" +++.@..................@...................@.+++ ",
" +++.@..................@...................@.+++ ",
" +++.@..................@...................@.+++ ",
" +++.@..................@...................@.+++ ",
" +++.@..................@...................@.+++ ",
" +++.@&&&&&&&&&&&&&&&&&&&&&&&&&&&&&&&&&&&&&&@.+++ ",
" +++.@&&&&&&&&&&&&&&&&&&&&&&&&&&&&&&&&&&&&&&@.+++ ",
"  ++.@&&&&&&&&&&&&&&&&&&&&&&&&&&&&&&&&&&&&&&@.++  ",
"   +.@&&&&&&&&&&&&&&&&&&&&&&&&&&&&&&&&&&&&&&@.+   ",
"     @&&&&&&&&&&&&&&&&&&&&&&&&&&&&&&&&&&&&&&@     "};
