/* XPM */
static char * exit_open_17_xpm[] = {
"50 50 6 1",
" 	c #393939",
".	c #A3A3A3",
"+	c #666666",
"@	c #000000",
"#	c #363643",
"$	c #505050",
"                                                  ",
"..................................................",
"..................................................",
"..................................................",
"..................................................",
"..................................................",
"..................................................",
"..................................................",
"                                                  ",
"   ++++++++++++++++++++++++++++++++++++++++++++   ",
"  ++++++..................................++++++  ",
" ++++++.@@@@@@@@@@@@@@@@@@@@@@@@@@@@@@@@@@.++++++ ",
" +++++.@..@############################@..@.+++++ ",
" ++++.@...@############################@...@.++++ ",
" ++++.@...@############################@...@.++++ ",
" +++.@....@############################@....@.+++ ",
" +++.@@@@@@############################@@@@@@.+++ ",
" +++.@$$$$$############################$$$$$@.+++ ",
" +++.@$$$$$############################$$$$$@.+++ ",
" +++.@$$$$$############################$$$$$@.+++ ",
" +++.@$$$$$############################$$$$$@.+++ ",
" +++.@$$$$$############################$$$$$@.+++ ",
" +++.@$$$$$############################$$$$$@.+++ ",
" +++.@$$$$$############################$$$$$@.+++ ",
" +++.@@@@@@############################@@@@@@.+++ ",
" +++.@.@@@@############################@@@@.@.+++ ",
" +++.@....@############################@....@.+++ ",
" +++.@....@############################@....@.+++ ",
"    .@....@############################@....@.+++ ",
"  $ .@....@############################@....@.+++ ",
"    .@....@############################@....@.+++ ",
" +++.@....@############################@....@.+++ ",
" +++.@....@############################@....@.+++ ",
" +++.@....@############################@....@.+++ ",
" +++.@....@############################@....@.+++ ",
" +++.@....@############################@....@.+++ ",
" +++.@....@############################@....@.+++ ",
" +++.@....@############################@....@.+++ ",
" +++.@....@############################@....@.+++ ",
" +++.@....@############################@....@.+++ ",
" +++.@....@############################@....@.+++ ",
" +++.@....@############################@....@.+++ ",
" +++.@....@############################@....@.+++ ",
" +++.@....@############################@....@.+++ ",
" +++.@....@############################@....@.+++ ",
" +++.@######################################@.+++ ",
" +++.@######################################@.+++ ",
"  ++.@######################################@.++  ",
"   +.@######################################@.+   ",
"     @######################################@     "};
