/* XPM */
static char * breathing_1_xpm[] = {
"39 55 337 2",
"  	c None",
". 	c #000000",
"+ 	c #9B9996",
"@ 	c #9C9A97",
"# 	c #A1A09D",
"$ 	c #A3A19E",
"% 	c #8E8880",
"& 	c #8D877F",
"* 	c #989591",
"= 	c #A59F99",
"- 	c #A6A099",
"; 	c #A29E99",
"> 	c #9E9C99",
", 	c #9F9C99",
"' 	c #999794",
") 	c #85837F",
"! 	c #ADA398",
"~ 	c #84827F",
"{ 	c #989693",
"] 	c #A9A7A5",
"^ 	c #93918E",
"/ 	c #8B8986",
"( 	c #817F7C",
"_ 	c #9D9C99",
": 	c #9E9B98",
"< 	c #94918E",
"[ 	c #9C9A96",
"} 	c #9B9693",
"| 	c #9D9B97",
"1 	c #9B9692",
"2 	c #959390",
"3 	c #99908B",
"4 	c #A66F54",
"5 	c #A77554",
"6 	c #A27454",
"7 	c #A47555",
"8 	c #C88F67",
"9 	c #AB7B58",
"0 	c #8A827C",
"a 	c #9D9B98",
"b 	c #9F9C98",
"c 	c #998D88",
"d 	c #BC7C58",
"e 	c #BD7D58",
"f 	c #AAA8A7",
"g 	c #AF8F81",
"h 	c #927C72",
"i 	c #92908D",
"j 	c #C2BCBC",
"k 	c #D7D1D1",
"l 	c #E9E6E6",
"m 	c #EFECEC",
"n 	c #BD7C58",
"o 	c #BF7D58",
"p 	c #CFC9C9",
"q 	c #DBD6D6",
"r 	c #EBE8E9",
"s 	c #A8948B",
"t 	c #BFB6B2",
"u 	c #83817E",
"v 	c #DDDCDC",
"w 	c #F0EFEF",
"x 	c #E3E0E0",
"y 	c #D9D4D4",
"z 	c #EDECEC",
"A 	c #EDEBEB",
"B 	c #E3DFDF",
"C 	c #D1CCCC",
"D 	c #968780",
"E 	c #B1B1AF",
"F 	c #9A9895",
"G 	c #988D88",
"H 	c #C6C2C2",
"I 	c #D8D2D2",
"J 	c #D3CDCD",
"K 	c #D4CECE",
"L 	c #EDC793",
"M 	c #EFC994",
"N 	c #D4CFCF",
"O 	c #CFCACA",
"P 	c #9E9A97",
"Q 	c #908F8C",
"R 	c #888683",
"S 	c #AFABAB",
"T 	c #BEB9B9",
"U 	c #BFBABA",
"V 	c #F7CF98",
"W 	c #FAD299",
"X 	c #BAB5B6",
"Y 	c #BBB6B6",
"Z 	c #93918F",
"` 	c #6C6B68",
" .	c #F8D098",
"..	c #F9D198",
"+.	c #686867",
"@.	c #A5A4A1",
"#.	c #7B7976",
"$.	c #584F4B",
"%.	c #A07654",
"&.	c #F6CE96",
"*.	c #F9D098",
"=.	c #F5CD96",
"-.	c #837057",
";.	c #7A7876",
">.	c #A2A09E",
",.	c #60605E",
"'.	c #784A36",
").	c #F1C791",
"!.	c #F4CA93",
"~.	c #D28D64",
"{.	c #D38E65",
"].	c #C6865F",
"^.	c #4A4644",
"/.	c #868482",
"(.	c #878583",
"_.	c #484645",
":.	c #B47B56",
"<.	c #F2C690",
"[.	c #F8D198",
"}.	c #F4C993",
"|.	c #D0875F",
"1.	c #BD7A55",
"2.	c #4A352C",
"3.	c #6C6A68",
"4.	c #A9A7A3",
"5.	c #ABA9A6",
"6.	c #989796",
"7.	c #999998",
"8.	c #908C8A",
"9.	c #B07B55",
"0.	c #F3C690",
"a.	c #F9D199",
"b.	c #F5CB94",
"c.	c #BB7752",
"d.	c #8C7F7A",
"e.	c #999897",
"f.	c #9E9D9C",
"g.	c #D6D3CE",
"h.	c #D7D5D1",
"i.	c #BDBCBB",
"j.	c #BDBCBA",
"k.	c #BAB9B8",
"l.	c #A59590",
"m.	c #A06E51",
"n.	c #A47554",
"o.	c #A57554",
"p.	c #A27453",
"q.	c #A27456",
"r.	c #A08177",
"s.	c #B7B7B6",
"t.	c #BFBEBC",
"u.	c #DBD8D3",
"v.	c #E1DED9",
"w.	c #BEBBB7",
"x.	c #DFDCD7",
"y.	c #DDDAD5",
"z.	c #C5C4C1",
"A.	c #BCBBBA",
"B.	c #666462",
"C.	c #B6A593",
"D.	c #B8A695",
"E.	c #6F6760",
"F.	c #C7C5C2",
"G.	c #CBC9C6",
"H.	c #D8D6D1",
"I.	c #E0DDD8",
"J.	c #BCBAB5",
"K.	c #DBD9D4",
"L.	c #D6D3CF",
"M.	c #69706F",
"N.	c #92D7D5",
"O.	c #94D9D8",
"P.	c #607E7D",
"Q.	c #DAD7D3",
"R.	c #DAD7D2",
"S.	c #6D7372",
"T.	c #99DDDB",
"U.	c #9AE0DE",
"V.	c #628180",
"W.	c #DEDBD6",
"X.	c #676663",
"Y.	c #8D8B88",
"Z.	c #D1CEC9",
"`.	c #666562",
" +	c #8C8A87",
".+	c #787775",
"++	c #DBD9D5",
"@+	c #D4D3D1",
"#+	c #697170",
"$+	c #CECDCB",
"%+	c #D8D6D3",
"&+	c #989692",
"*+	c #D2D0CB",
"=+	c #DDDAD6",
"-+	c #D4D3D0",
";+	c #D3D2D0",
">+	c #D2D1CF",
",+	c #697070",
"'+	c #CDCCCA",
")+	c #BAB8B4",
"!+	c #DEDCD8",
"~+	c #D7D6D3",
"{+	c #D4D4D2",
"]+	c #D2D2D0",
"^+	c #DAD9D5",
"/+	c #CBAE86",
"(+	c #F4D2A5",
"_+	c #F2D1A3",
":+	c #E1B590",
"<+	c #D0987E",
"[+	c #DBD6D2",
"}+	c #DCD9D3",
"|+	c #F2D0A4",
"1+	c #F3D1A4",
"2+	c #CEAC7B",
"3+	c #F8CF98",
"4+	c #F2C791",
"5+	c #E1A97A",
"6+	c #D08962",
"7+	c #D2CFCC",
"8+	c #C5C4C3",
"9+	c #636B6A",
"0+	c #62807F",
"a+	c #D2CDC7",
"b+	c #F6CE97",
"c+	c #CFAD7C",
"d+	c #F6CD96",
"e+	c #C9825B",
"f+	c #C57F59",
"g+	c #BD7B59",
"h+	c #D1CECB",
"i+	c #CFCECC",
"j+	c #C2C1BF",
"k+	c #BBBAB8",
"l+	c #D7D4D0",
"m+	c #E3AD7D",
"n+	c #E4AE7E",
"o+	c #F9D299",
"p+	c #B8855C",
"q+	c #DEA275",
"r+	c #C17D58",
"s+	c #965B40",
"t+	c #8F5840",
"u+	c #D0CECB",
"v+	c #CAC9C8",
"w+	c #B8B7B6",
"x+	c #C9C7C5",
"y+	c #A26346",
"z+	c #C28861",
"A+	c #DEA476",
"B+	c #A76945",
"C+	c #965C41",
"D+	c #8C543B",
"E+	c #854E37",
"F+	c #4E2F24",
"G+	c #B7B5B4",
"H+	c #BEBDBC",
"I+	c #636A6A",
"J+	c #94D7D5",
"K+	c #96DAD8",
"L+	c #607D7D",
"M+	c #834C35",
"N+	c #AA6C4C",
"O+	c #CB845D",
"P+	c #424241",
"Q+	c #454342",
"R+	c #A7A6A5",
"S+	c #B6B5B4",
"T+	c #5E5D5D",
"U+	c #383A37",
"V+	c #3B3D36",
"W+	c #434343",
"X+	c #6C6B6A",
"Y+	c #21201E",
"Z+	c #818181",
"`+	c #3A3939",
" @	c #21201F",
".@	c #71706F",
"+@	c #454444",
"@@	c #51504B",
"#@	c #56564C",
"$@	c #7E7E7D",
"%@	c #0F0D08",
"&@	c #3B3A39",
"*@	c #404040",
"=@	c #515151",
"-@	c #4F4F4F",
";@	c #474646",
">@	c #484847",
",@	c #484747",
"'@	c #484848",
")@	c #464646",
"!@	c #4C4C4C",
"~@	c #535353",
"{@	c #808080",
"]@	c #505050",
"^@	c #525252",
"/@	c #3B3B3B",
"(@	c #707070",
"_@	c #393939",
":@	c #454545",
"<@	c #424242",
"[@	c #4B4B4B",
"}@	c #333333",
"|@	c #393837",
"1@	c #383736",
"2@	c #373635",
"3@	c #343434",
"4@	c #444443",
"5@	c #3F3E3E",
"6@	c #424141",
"7@	c #474747",
"8@	c #373636",
"9@	c #50504F",
"0@	c #767675",
"a@	c #6F6F6F",
"b@	c #777777",
"c@	c #6E6E6E",
"d@	c #5B5B5B",
"e@	c #646363",
"f@	c #646463",
"g@	c #646464",
"h@	c #4A4A4A",
"i@	c #696969",
"j@	c #676767",
"k@	c #5E5E5E",
"l@	c #727272",
"m@	c #757575",
"n@	c #737373",
"o@	c #626262",
"p@	c #636363",
"q@	c #545454",
"r@	c #5C5C5C",
"s@	c #5D5D5D",
"t@	c #747474",
"u@	c #373737",
"v@	c #5F5F5F",
"                                                                              ",
"                                                                              ",
"                                                                              ",
"                        . . . . . . . . . . . . .                             ",
"                      . . + @ + @ @ @ @ @ # @ @ . . .                         ",
"                    . . $ @ % & * = - ; > , - - , @ . .                       ",
"                  . . ' + ) @ @ @ @ @ @ @ @ @ @ ! ~ { .                       ",
"                  . ] ^ @ @ @ @ @ @ @ @ @ @ @ @ @ / ( .                       ",
"                  . @ _ @ @ @ @ @ @ @ @ @ @ @ @ @ : < .                       ",
"                  . @ > @ @ @ @ @ @ @ @ @ @ @ @ @ @ [ . .                     ",
"                  . @ } @ @ @ @ @ @ @ @ @ @ @ @ @ @ | . .                     ",
"                  . ; 1 @ @ @ @ @ @ @ @ @ @ @ @ @ 2 > + .                     ",
"                  . @ 3 4 5 @ @ 6 7 @ 8 9 6 6 @ 0 a b : .                     ",
"                  . + c . . . @ . . d e . . . . f . g h .                     ",
"                  . i c . j k l m . n o . p q l r . s t .                     ",
"                  . u c . v w x y . . . . z A B C . D E .                     ",
"                  . F G . H I J K . L M . N k J O . P Q .                     ",
"                  . R ~ . S T T U . V W . X T T Y . i . .                     ",
"                  . Z ` . . . . . .  .... . . . . . +..                       ",
"                  . @.#.$.%.&....... . .....*.*.=.-.;..                       ",
"                    . >.,.'.). . . . . . .!.~.{.].^./..                       ",
"                    . . (._.:.<.[. . . . .}.|.1.2.3..                         ",
"                  . 4.5.6.7.8.9.0.W a.a.a.b.c.d.e.f..                         ",
"                . . g.h.i.j.k.l.m.6 n.o.p.q.r.s.t.u.v.. .                     ",
"                . w.x.x.x.x.y.z.A.B.C.D.E.F.G.H.x.x.x.I..                     ",
"                . J.x.x.x.x.x.K.L.M.N.O.P.Q.x.x.x.x.x.x..                     ",
"                . J.x.x.x.x.R.x.I.S.T.U.V.R.x.u.W.x.x.x..                     ",
"                . J.x.x.x.W.X.v.I.S.T.U.V.R.v.Y.Z.x.x.x..                     ",
"                . J.x.x.x.W.`.v.I.S.T.U.V.R.v. +Z.x.x.x..                     ",
"                . J.x.x.x.W.`.v.I.S.T.U.V.R.v. +Z.x.x.x..                     ",
"                . J.x.x.x.y..+++@+#+T.U.V.$+%+&+*+x.x.x..                     ",
"                . J.x.x.=+-+;+>+;+,+T.U.V.'+>+%+++x.x.x..                     ",
"                . )+!+~+{+]+>+>+;+,+T.U.V.'+>+>+>+~+^+!+.                     ",
"                . /+(+_+:+<+[+>+;+,+T.U.V.'+>+>+}+|+1+(+.                     ",
"                . 2+3+4+5+6+7+>+8+9+T.U.0+j.x.x.a+b+b. ..                     ",
"                . c+d+e+f+g+h+i+j+9+T.U.0+k+l+v.. m+n+o+.                     ",
"                . p+q+r+s+t+u+v+i.9+T.U.0+w+x+v.. y+z+A+.                     ",
"                . B+C+D+E+F+G+H+i.I+J+K+L+w+i.7+. M+N+O+.                     ",
"                . . . . . P+Q+R+S+T+U+V+W+S+R+X+Y+. . . .                     ",
"                        . Z+`+ @.@+@@@#@`+$@%@&@*@.                           ",
"                        . Z+=@-@;@>@,@,@'@)@!@~@W+.                           ",
"                        . {@]@^@^@^@'@/@^@^@^@~@W+.                           ",
"                        . (@=@^@^@^@'@_@^@^@^@~@W+.                           ",
"                        . W+^@^@^@^@'@_@^@^@^@~@W+.                           ",
"                        . :@^@^@^@^@'@_@^@=@=@^@<@.                           ",
"                        . [@^@^@^@^@'@}@[@|@1@1@2@.                           ",
"                        3@4@5@5@5@6@7@8@9@0@a@a@b@c@                          ",
"                      . Y+d@e@f@g@. 7@h@i@j@k@k@j@b@. .                       ",
"                    . *@l@m@n@o@p@. ]@q@r@r@r@r@s@n@t@.                       ",
"                    . . . . . . . . u@v@. . . . . . . .                       ",
"                                                                              ",
"                                                                              ",
"                                                                              ",
"                                                                              ",
"                                                                              "};
