/* XPM */
static char * breathing_2_xpm[] = {
"39 55 327 2",
"  	c None",
". 	c #000000",
"+ 	c #9B9996",
"@ 	c #9C9A97",
"# 	c #A1A09D",
"$ 	c #A3A19E",
"% 	c #8E8880",
"& 	c #8D877F",
"* 	c #989591",
"= 	c #A59F99",
"- 	c #A6A099",
"; 	c #A29E99",
"> 	c #9E9C99",
", 	c #9F9C99",
"' 	c #999794",
") 	c #85837F",
"! 	c #ADA398",
"~ 	c #84827F",
"{ 	c #989693",
"] 	c #A9A7A5",
"^ 	c #93918E",
"/ 	c #8B8986",
"( 	c #817F7C",
"_ 	c #9D9C99",
": 	c #9E9B98",
"< 	c #94918E",
"[ 	c #9C9A96",
"} 	c #9B9693",
"| 	c #9D9B97",
"1 	c #9B9692",
"2 	c #959390",
"3 	c #99908B",
"4 	c #A66F54",
"5 	c #A77554",
"6 	c #A27454",
"7 	c #A47555",
"8 	c #C88F67",
"9 	c #AB7B58",
"0 	c #8A827C",
"a 	c #9D9B98",
"b 	c #9F9C98",
"c 	c #998D88",
"d 	c #BC7C58",
"e 	c #BD7D58",
"f 	c #AAA8A7",
"g 	c #AF8F81",
"h 	c #927C72",
"i 	c #92908D",
"j 	c #C2BCBC",
"k 	c #D7D1D1",
"l 	c #E9E6E6",
"m 	c #EFECEC",
"n 	c #BD7C58",
"o 	c #BF7D58",
"p 	c #CFC9C9",
"q 	c #DBD6D6",
"r 	c #EBE8E9",
"s 	c #A8948B",
"t 	c #BFB6B2",
"u 	c #83817E",
"v 	c #DDDCDC",
"w 	c #F0EFEF",
"x 	c #E3E0E0",
"y 	c #D9D4D4",
"z 	c #EDECEC",
"A 	c #EDEBEB",
"B 	c #E3DFDF",
"C 	c #D1CCCC",
"D 	c #968780",
"E 	c #B1B1AF",
"F 	c #9A9895",
"G 	c #988D88",
"H 	c #C6C2C2",
"I 	c #D8D2D2",
"J 	c #D3CDCD",
"K 	c #D4CECE",
"L 	c #EDC793",
"M 	c #EFC994",
"N 	c #D4CFCF",
"O 	c #CFCACA",
"P 	c #9E9A97",
"Q 	c #908F8C",
"R 	c #888683",
"S 	c #AFABAB",
"T 	c #BEB9B9",
"U 	c #BFBABA",
"V 	c #F7CF98",
"W 	c #FAD299",
"X 	c #BAB5B6",
"Y 	c #BBB6B6",
"Z 	c #93918F",
"` 	c #6C6B68",
" .	c #F8D098",
"..	c #F9D198",
"+.	c #686867",
"@.	c #A5A4A1",
"#.	c #7B7976",
"$.	c #584F4B",
"%.	c #A07654",
"&.	c #F6CE96",
"*.	c #F9D098",
"=.	c #F5CD96",
"-.	c #837057",
";.	c #7A7876",
">.	c #A2A09E",
",.	c #60605E",
"'.	c #784A36",
").	c #F1C791",
"!.	c #F4CA93",
"~.	c #D28D64",
"{.	c #D38E65",
"].	c #C6865F",
"^.	c #4A4644",
"/.	c #868482",
"(.	c #878583",
"_.	c #484645",
":.	c #B47B56",
"<.	c #F2C690",
"[.	c #F8D198",
"}.	c #F4C993",
"|.	c #D0875F",
"1.	c #BD7A55",
"2.	c #4A352C",
"3.	c #6C6A68",
"4.	c #A9A7A3",
"5.	c #ABA9A6",
"6.	c #989796",
"7.	c #999998",
"8.	c #908C8A",
"9.	c #B07B55",
"0.	c #F3C690",
"a.	c #F9D199",
"b.	c #F5CB94",
"c.	c #BB7752",
"d.	c #8C7F7A",
"e.	c #999897",
"f.	c #9E9D9C",
"g.	c #DFDCD7",
"h.	c #D6D3CE",
"i.	c #D7D5D1",
"j.	c #BDBCBB",
"k.	c #BDBCBA",
"l.	c #BAB9B8",
"m.	c #A59590",
"n.	c #A06E51",
"o.	c #A47554",
"p.	c #A57554",
"q.	c #A27453",
"r.	c #A27456",
"s.	c #A08177",
"t.	c #B7B7B6",
"u.	c #BFBEBC",
"v.	c #DBD8D3",
"w.	c #E1DED9",
"x.	c #BCBAB5",
"y.	c #DBD9D4",
"z.	c #D6D3CF",
"A.	c #69706F",
"B.	c #92D7D5",
"C.	c #94D9D8",
"D.	c #607E7D",
"E.	c #DAD7D3",
"F.	c #DAD7D2",
"G.	c #E0DDD8",
"H.	c #6D7372",
"I.	c #99DDDB",
"J.	c #9AE0DE",
"K.	c #628180",
"L.	c #DEDBD6",
"M.	c #676663",
"N.	c #8D8B88",
"O.	c #D1CEC9",
"P.	c #666562",
"Q.	c #8C8A87",
"R.	c #DDDAD5",
"S.	c #787775",
"T.	c #DBD9D5",
"U.	c #D4D3D1",
"V.	c #697170",
"W.	c #CECDCB",
"X.	c #D8D6D3",
"Y.	c #989692",
"Z.	c #D2D0CB",
"`.	c #DDDAD6",
" +	c #D4D3D0",
".+	c #D3D2D0",
"++	c #D2D1CF",
"@+	c #697070",
"#+	c #CDCCCA",
"$+	c #BAB8B4",
"%+	c #DEDCD8",
"&+	c #D7D6D3",
"*+	c #D4D4D2",
"=+	c #D2D2D0",
"-+	c #DAD9D5",
";+	c #CBAE86",
">+	c #F4D2A5",
",+	c #F2D1A3",
"'+	c #E1B590",
")+	c #D0987E",
"!+	c #DBD6D2",
"~+	c #DCD9D3",
"{+	c #F2D0A4",
"]+	c #F3D1A4",
"^+	c #CEAC7B",
"/+	c #F8CF98",
"(+	c #F2C791",
"_+	c #E1A97A",
":+	c #D08962",
"<+	c #D2CFCC",
"[+	c #C5C4C3",
"}+	c #636B6A",
"|+	c #62807F",
"1+	c #D2CDC7",
"2+	c #F6CE97",
"3+	c #CFAD7C",
"4+	c #F6CD96",
"5+	c #C9825B",
"6+	c #C57F59",
"7+	c #BD7B59",
"8+	c #D1CECB",
"9+	c #CFCECC",
"0+	c #C2C1BF",
"a+	c #BBBAB8",
"b+	c #D7D4D0",
"c+	c #E3AD7D",
"d+	c #E4AE7E",
"e+	c #F9D299",
"f+	c #B8855C",
"g+	c #DEA275",
"h+	c #C17D58",
"i+	c #965B40",
"j+	c #8F5840",
"k+	c #D0CECB",
"l+	c #CAC9C8",
"m+	c #B8B7B6",
"n+	c #C9C7C5",
"o+	c #A26346",
"p+	c #C28861",
"q+	c #DEA476",
"r+	c #A76945",
"s+	c #965C41",
"t+	c #8C543B",
"u+	c #854E37",
"v+	c #4E2F24",
"w+	c #B7B5B4",
"x+	c #BEBDBC",
"y+	c #636A6A",
"z+	c #94D7D5",
"A+	c #96DAD8",
"B+	c #607D7D",
"C+	c #834C35",
"D+	c #AA6C4C",
"E+	c #CB845D",
"F+	c #424241",
"G+	c #454342",
"H+	c #A7A6A5",
"I+	c #B6B5B4",
"J+	c #5E5D5D",
"K+	c #383A37",
"L+	c #3B3D36",
"M+	c #434343",
"N+	c #6C6B6A",
"O+	c #21201E",
"P+	c #818181",
"Q+	c #3A3939",
"R+	c #21201F",
"S+	c #71706F",
"T+	c #454444",
"U+	c #51504B",
"V+	c #56564C",
"W+	c #7E7E7D",
"X+	c #0F0D08",
"Y+	c #3B3A39",
"Z+	c #404040",
"`+	c #515151",
" @	c #4F4F4F",
".@	c #474646",
"+@	c #484847",
"@@	c #484747",
"#@	c #484848",
"$@	c #464646",
"%@	c #4C4C4C",
"&@	c #535353",
"*@	c #808080",
"=@	c #505050",
"-@	c #525252",
";@	c #3B3B3B",
">@	c #707070",
",@	c #393939",
"'@	c #454545",
")@	c #424242",
"!@	c #4B4B4B",
"~@	c #333333",
"{@	c #393837",
"]@	c #383736",
"^@	c #373635",
"/@	c #343434",
"(@	c #444443",
"_@	c #3F3E3E",
":@	c #424141",
"<@	c #474747",
"[@	c #373636",
"}@	c #50504F",
"|@	c #767675",
"1@	c #6F6F6F",
"2@	c #777777",
"3@	c #6E6E6E",
"4@	c #5B5B5B",
"5@	c #646363",
"6@	c #646463",
"7@	c #646464",
"8@	c #4A4A4A",
"9@	c #696969",
"0@	c #676767",
"a@	c #5E5E5E",
"b@	c #727272",
"c@	c #757575",
"d@	c #737373",
"e@	c #626262",
"f@	c #636363",
"g@	c #545454",
"h@	c #5C5C5C",
"i@	c #5D5D5D",
"j@	c #747474",
"k@	c #373737",
"l@	c #5F5F5F",
"                                                                              ",
"                                                                              ",
"                                                                              ",
"                                                                              ",
"                        . . . . . . . . . . . . .                             ",
"                      . . + @ + @ @ @ @ @ # @ @ . . .                         ",
"                    . . $ @ % & * = - ; > , - - , @ . .                       ",
"                  . . ' + ) @ @ @ @ @ @ @ @ @ @ ! ~ { .                       ",
"                  . ] ^ @ @ @ @ @ @ @ @ @ @ @ @ @ / ( .                       ",
"                  . @ _ @ @ @ @ @ @ @ @ @ @ @ @ @ : < . .                     ",
"                  . @ > @ @ @ @ @ @ @ @ @ @ @ @ @ @ [ . .                     ",
"                  . @ } @ @ @ @ @ @ @ @ @ @ @ @ @ @ | . .                     ",
"                  . ; 1 @ @ @ @ @ @ @ @ @ @ @ @ @ 2 > + .                     ",
"                  . @ 3 4 5 @ @ 6 7 @ 8 9 6 6 @ 0 a b : .                     ",
"                  . + c . . . @ . . d e . . . . f . g h .                     ",
"                  . i c . j k l m . n o . p q l r . s t .                     ",
"                  . u c . v w x y . . . . z A B C . D E .                     ",
"                  . F G . H I J K . L M . N k J O . P Q .                     ",
"                  . R ~ . S T T U . V W . X T T Y . i . .                     ",
"                  . Z ` . . . . . .  .... . . . . . +..                       ",
"                  . @.#.$.%.&....... . .....*.*.=.-.;..                       ",
"                    . >.,.'.). . . . . . .!.~.{.].^./..                       ",
"                  . . . (._.:.<.[. . . . .}.|.1.2.3..                         ",
"                . . 4.5.6.7.8.9.0.W a.a.a.b.c.d.e.f.. .                       ",
"                . g.h.i.j.k.l.m.n.6 o.p.q.r.s.t.u.v.w.. .                     ",
"                . x.g.g.g.g.g.y.z.A.B.C.D.E.g.g.g.g.g.g..                     ",
"                . x.g.g.g.g.F.g.G.H.I.J.K.F.g.v.L.g.g.g..                     ",
"                . x.g.g.g.L.M.w.G.H.I.J.K.F.w.N.O.g.g.g..                     ",
"                . x.g.g.g.L.P.w.G.H.I.J.K.F.w.Q.O.g.g.g..                     ",
"                . x.g.g.g.L.P.w.G.H.I.J.K.F.w.Q.O.g.g.g..                     ",
"                . x.g.g.g.R.S.T.U.V.I.J.K.W.X.Y.Z.g.g.g..                     ",
"                . x.g.g.`. +.+++.+@+I.J.K.#+++X.T.g.g.g..                     ",
"                . $+%+&+*+=+++++.+@+I.J.K.#+++++++&+-+%+.                     ",
"                . ;+>+,+'+)+!+++.+@+I.J.K.#+++++~+{+]+>+.                     ",
"                . ^+/+(+_+:+<+++[+}+I.J.|+k.g.g.1+2+b. ..                     ",
"                . 3+4+5+6+7+8+9+0+}+I.J.|+a+b+w.. c+d+e+.                     ",
"                . f+g+h+i+j+k+l+j.}+I.J.|+m+n+w.. o+p+q+.                     ",
"                . r+s+t+u+v+w+x+j.y+z+A+B+m+j.<+. C+D+E+.                     ",
"                . . . . . F+G+H+I+J+K+L+M+I+H+N+O+. . . .                     ",
"                        . P+Q+R+S+T+U+V+Q+W+X+Y+Z+.                           ",
"                        . P+`+ @.@+@@@@@#@$@%@&@M+.                           ",
"                        . *@=@-@-@-@#@;@-@-@-@&@M+.                           ",
"                        . >@`+-@-@-@#@,@-@-@-@&@M+.                           ",
"                        . M+-@-@-@-@#@,@-@-@-@&@M+.                           ",
"                        . '@-@-@-@-@#@,@-@`+`+-@)@.                           ",
"                        . !@-@-@-@-@#@~@!@{@]@]@^@.                           ",
"                        /@(@_@_@_@:@<@[@}@|@1@1@2@3@                          ",
"                      . O+4@5@6@7@. <@8@9@0@a@a@0@2@. .                       ",
"                    . Z+b@c@d@e@f@. =@g@h@h@h@h@i@d@j@.                       ",
"                    . . . . . . . . k@l@. . . . . . . .                       ",
"                                                                              ",
"                                                                              ",
"                                                                              ",
"                                                                              ",
"                                                                              "};
