/* XPM */
static char * perso_xpm[] = {
"39 55 177 2",
"  	c None",
". 	c #000000",
"+ 	c #365B35",
"@ 	c #437742",
"# 	c #1C2B1C",
"$ 	c #2E572E",
"% 	c #2A422A",
"& 	c #F7F7F7",
"* 	c #3A593A",
"= 	c #3D6F3C",
"- 	c #253925",
"; 	c #356334",
"> 	c #A9A7A3",
", 	c #ABA9A6",
"' 	c #989796",
") 	c #9E9D9C",
"! 	c #D6D3CE",
"~ 	c #D7D5D1",
"{ 	c #BDBCBB",
"] 	c #BDBCBA",
"^ 	c #BAB9B8",
"/ 	c #B7B7B6",
"( 	c #BFBEBC",
"_ 	c #DBD8D3",
": 	c #E1DED9",
"< 	c #636260",
"[ 	c #D7D4CF",
"} 	c #DFDCD7",
"| 	c #C9C7C4",
"1 	c #C2C0BF",
"2 	c #BBBAB9",
"3 	c #BBB9B8",
"4 	c #C0BEBD",
"5 	c #E1DED8",
"6 	c #BEBBB7",
"7 	c #DDDAD5",
"8 	c #C5C4C1",
"9 	c #BCBBBA",
"0 	c #666462",
"a 	c #628180",
"b 	c #C7C5C2",
"c 	c #CBC9C6",
"d 	c #D8D6D1",
"e 	c #E0DDD8",
"f 	c #BCBAB5",
"g 	c #DBD9D4",
"h 	c #D6D3CF",
"i 	c #69706F",
"j 	c #92D7D5",
"k 	c #94D9D8",
"l 	c #607E7D",
"m 	c #DAD7D3",
"n 	c #DAD7D2",
"o 	c #6D7372",
"p 	c #99DDDB",
"q 	c #9AE0DE",
"r 	c #DEDBD6",
"s 	c #676663",
"t 	c #8D8B88",
"u 	c #D1CEC9",
"v 	c #666562",
"w 	c #8C8A87",
"x 	c #787775",
"y 	c #DBD9D5",
"z 	c #D4D3D1",
"A 	c #697170",
"B 	c #CECDCB",
"C 	c #D8D6D3",
"D 	c #989692",
"E 	c #D2D0CB",
"F 	c #DDDAD6",
"G 	c #D4D3D0",
"H 	c #D3D2D0",
"I 	c #D2D1CF",
"J 	c #697070",
"K 	c #CDCCCA",
"L 	c #BAB8B4",
"M 	c #DEDCD8",
"N 	c #D7D6D3",
"O 	c #D4D4D2",
"P 	c #D2D2D0",
"Q 	c #DAD9D5",
"R 	c #DBD6D2",
"S 	c #DCD9D3",
"T 	c #D2CFCC",
"U 	c #C5C4C3",
"V 	c #636B6A",
"W 	c #62807F",
"X 	c #D2CDC7",
"Y 	c #D1CECB",
"Z 	c #CFCECC",
"` 	c #C2C1BF",
" .	c #BBBAB8",
"..	c #D7D4D0",
"+.	c #D0CECB",
"@.	c #CAC9C8",
"#.	c #B8B7B6",
"$.	c #C9C7C5",
"%.	c #B7B5B4",
"&.	c #BEBDBC",
"*.	c #636A6A",
"=.	c #94D7D5",
"-.	c #96DAD8",
";.	c #607D7D",
">.	c #424241",
",.	c #454342",
"'.	c #A7A6A5",
").	c #B6B5B4",
"!.	c #5E5D5D",
"~.	c #383A37",
"{.	c #3B3D36",
"].	c #434343",
"^.	c #6C6B6A",
"/.	c #21201E",
"(.	c #818181",
"_.	c #3A3939",
":.	c #21201F",
"<.	c #71706F",
"[.	c #454444",
"}.	c #51504B",
"|.	c #56564C",
"1.	c #7E7E7D",
"2.	c #0F0D08",
"3.	c #3B3A39",
"4.	c #404040",
"5.	c #515151",
"6.	c #4F4F4F",
"7.	c #474646",
"8.	c #484847",
"9.	c #484747",
"0.	c #484848",
"a.	c #464646",
"b.	c #4C4C4C",
"c.	c #535353",
"d.	c #808080",
"e.	c #505050",
"f.	c #525252",
"g.	c #3B3B3B",
"h.	c #707070",
"i.	c #393939",
"j.	c #454545",
"k.	c #424242",
"l.	c #4B4B4B",
"m.	c #333333",
"n.	c #393837",
"o.	c #383736",
"p.	c #373635",
"q.	c #343434",
"r.	c #444443",
"s.	c #3F3E3E",
"t.	c #424141",
"u.	c #474747",
"v.	c #373636",
"w.	c #50504F",
"x.	c #767675",
"y.	c #6F6F6F",
"z.	c #777777",
"A.	c #6E6E6E",
"B.	c #5B5B5B",
"C.	c #646363",
"D.	c #646463",
"E.	c #646464",
"F.	c #4A4A4A",
"G.	c #696969",
"H.	c #676767",
"I.	c #5E5E5E",
"J.	c #727272",
"K.	c #757575",
"L.	c #737373",
"M.	c #626262",
"N.	c #636363",
"O.	c #545454",
"P.	c #5C5C5C",
"Q.	c #5D5D5D",
"R.	c #747474",
"S.	c #373737",
"T.	c #5F5F5F",
"                                                                              ",
"                                                                              ",
"                                                                              ",
"                        . . . . . . . . . . . . .                             ",
"                      . . + + + + + + + + + + + . .                           ",
"                    . . + + @ @ @ @ @ @ @ @ @ + + . .                         ",
"                    . + + @ @ @ @ @ @ @ @ @ @ @ + + .                         ",
"                    . + @ @ @ @ @ @ @ @ @ @ @ @ @ + .                         ",
"                    . + + @ @ @ @ @ @ @ @ @ @ @ + + .                         ",
"                    . # + + + @ @ @ @ @ @ @ + + + # .                         ",
"                    . $ # # + + + + + + + + + + # $ .                         ",
"                    . % + + # # # # # # # # # # + % .                         ",
"                    . % % % + + + + + + + + + + % % .                         ",
"                    . % % % % % % % % % % % % % % % .                         ",
"                    . % % & & & % % % % % % & & & % .                         ",
"                    . * % & & & % % % % % % & & & * .                         ",
"                    . * * % % % % % % % % % % % * * .                         ",
"                    . * * * * * * * * * * * * * * * .                         ",
"                    . * * * * * * * * * * * * * * * .                         ",
"                    . . * * * * . . . . . * * = @ = .                         ",
"                  . . . - - * * * * * * * * = ; - - .                         ",
"                  . > , ' - - ; = @ @ @ @ = ; - - ) . .                       ",
"                  . ! ~ { ] ^ - = = = = = = - / ( _ : .                       ",
"                . < [ } } | 1 2 - - - - - - 3 4 _ } 5 . .                     ",
"                . 6 } } } } 7 8 9 0 # # a b c d } } } e .                     ",
"                . f } } } } } g h i j k l m } } } } } } .                     ",
"                . f } } } } n } e o p q a n } _ r } } } .                     ",
"                . f } } } r s : e o p q a n : t u } } } .                     ",
"                . f } } } r v : e o p q a n : w u } } } .                     ",
"                . f } } } r v : e o p q a n : w u } } } .                     ",
"                . f } } } 7 x y z A p q a B C D E } } } .                     ",
"                . f } } F G H I H J p q a K I C y } } } .                     ",
"                . L M N O P I I H J p q a K I I I N Q M .                     ",
"                . + + + + + R I H J p q a K I I S + + + .                     ",
"                . + + + + + T I U V p q W ] } } X + + + .                     ",
"                . + + + + + Y Z ` V p q W  ...: . + + + .                     ",
"                . + + + + + +.@.{ V p q W #.$.: . + + + .                     ",
"                . + + + + + %.&.{ *.=.-.;.#.{ T . + + + .                     ",
"                . . . . . >.,.'.).!.~.{.].).'.^./.. . . .                     ",
"                        . (._.:.<.[.}.|._.1.2.3.4..                           ",
"                        . (.5.6.7.8.9.9.0.a.b.c.]..                           ",
"                        . d.e.f.f.f.0.g.f.f.f.c.]..                           ",
"                        . h.5.f.f.f.0.i.f.f.f.c.]..                           ",
"                        . ].f.f.f.f.0.i.f.f.f.c.]..                           ",
"                        . j.f.f.f.f.0.i.f.5.5.f.k..                           ",
"                        . l.f.f.f.f.0.m.l.n.o.o.p..                           ",
"                        q.r.s.s.s.t.u.v.w.x.y.y.z.A.                          ",
"                      . /.B.C.D.E.. u.F.G.H.I.I.H.z.. .                       ",
"                    . 4.J.K.L.M.N.. e.O.P.P.P.P.Q.L.R..                       ",
"                    . . . . . . . . S.T.. . . . . . . .                       ",
"                                                                              ",
"                                                                              ",
"                                                                              ",
"                                                                              ",
"                                                                              "};
