/* XPM */
static char * back_perso_1_xpm[] = {
"39 55 137 2",
"  	c None",
". 	c #000000",
"+ 	c #010101",
"@ 	c #365B35",
"# 	c #437742",
"$ 	c #1C2B1C",
"% 	c #2A422A",
"& 	c #3A593A",
"* 	c #A9A7A3",
"= 	c #ABA9A6",
"- 	c #7B7976",
"; 	c #9C9A97",
"> 	c #85837F",
", 	c #D6D3CE",
"' 	c #D7D5D1",
") 	c #BDBCBB",
"! 	c #BDBCBA",
"~ 	c #BAB9B8",
"{ 	c #BFBEBC",
"] 	c #DBD8D3",
"^ 	c #E1DED9",
"/ 	c #BEBBB7",
"( 	c #DFDCD7",
"_ 	c #DDDAD5",
": 	c #C5C4C1",
"< 	c #BCBBBA",
"[ 	c #C7C5C2",
"} 	c #CBC9C6",
"| 	c #D8D6D1",
"1 	c #E0DDD8",
"2 	c #BCBAB5",
"3 	c #DBD9D4",
"4 	c #D6D3CF",
"5 	c #DAD7D2",
"6 	c #DEDBD6",
"7 	c #676663",
"8 	c #8D8B88",
"9 	c #D1CEC9",
"0 	c #666562",
"a 	c #8C8A87",
"b 	c #787775",
"c 	c #DBD9D5",
"d 	c #D4D3D1",
"e 	c #D8D6D3",
"f 	c #989692",
"g 	c #D2D0CB",
"h 	c #DDDAD6",
"i 	c #D4D3D0",
"j 	c #D3D2D0",
"k 	c #D2D1CF",
"l 	c #BAB8B4",
"m 	c #DEDCD8",
"n 	c #D7D6D3",
"o 	c #D4D4D2",
"p 	c #D2D2D0",
"q 	c #DAD9D5",
"r 	c #DBD6D2",
"s 	c #DCD9D3",
"t 	c #D2CFCC",
"u 	c #D2CDC7",
"v 	c #D1CECB",
"w 	c #CFCECC",
"x 	c #D0CECB",
"y 	c #CAC9C8",
"z 	c #C9C7C5",
"A 	c #B7B5B4",
"B 	c #BEBDBC",
"C 	c #424241",
"D 	c #454342",
"E 	c #A7A6A5",
"F 	c #B6B5B4",
"G 	c #6C6B6A",
"H 	c #21201E",
"I 	c #818181",
"J 	c #3A3939",
"K 	c #21201F",
"L 	c #71706F",
"M 	c #454444",
"N 	c #51504B",
"O 	c #56564C",
"P 	c #7E7E7D",
"Q 	c #0F0D08",
"R 	c #3B3A39",
"S 	c #404040",
"T 	c #515151",
"U 	c #4F4F4F",
"V 	c #474646",
"W 	c #484847",
"X 	c #484747",
"Y 	c #484848",
"Z 	c #464646",
"` 	c #4C4C4C",
" .	c #535353",
"..	c #434343",
"+.	c #808080",
"@.	c #505050",
"#.	c #525252",
"$.	c #3B3B3B",
"%.	c #707070",
"&.	c #393939",
"*.	c #454545",
"=.	c #424242",
"-.	c #4B4B4B",
";.	c #333333",
">.	c #393837",
",.	c #383736",
"'.	c #373635",
").	c #343434",
"!.	c #444443",
"~.	c #3F3E3E",
"{.	c #424141",
"].	c #474747",
"^.	c #373636",
"/.	c #50504F",
"(.	c #767675",
"_.	c #6F6F6F",
":.	c #777777",
"<.	c #6E6E6E",
"[.	c #5B5B5B",
"}.	c #646363",
"|.	c #646463",
"1.	c #646464",
"2.	c #4A4A4A",
"3.	c #696969",
"4.	c #676767",
"5.	c #5E5E5E",
"6.	c #727272",
"7.	c #757575",
"8.	c #737373",
"9.	c #626262",
"0.	c #636363",
"a.	c #545454",
"b.	c #5C5C5C",
"c.	c #5D5D5D",
"d.	c #747474",
"e.	c #373737",
"f.	c #5F5F5F",
"                                                                              ",
"                                                                              ",
"                                                                              ",
"                        . . . + + + + + + + + + +                             ",
"                      . . @ @ @ @ @ @ @ @ @ @ @ + +                           ",
"                    . . @ @ # # # # # # # # # @ @ . .                         ",
"                    . @ @ # # # # # # # # # # # @ @ .                         ",
"                    . @ # # # # # # # # # # # # # @ .                         ",
"                    . @ @ # # # # # # # # # # # @ @ .                         ",
"                    . $ @ @ @ # # # # # # # @ @ @ $ .                         ",
"                    . @ $ $ @ @ @ @ @ @ @ @ @ $ $ @ .                         ",
"                    . % @ @ $ $ $ $ $ $ $ $ $ @ @ % .                         ",
"                    . % % % @ @ @ @ @ @ @ @ @ % % % .                         ",
"                    . & % % % % % % % % % % % % % & .                         ",
"                    . & & & % % % % % % % % % & & & .                         ",
"                    . & & & & & & & & & & & & & & & .                         ",
"                    . & & & & & & & & & & & & & & & .                         ",
"                    . & & & & & & & & & & & & & & & .                         ",
"                    . & & & & & & & & & & & & & & & .                         ",
"                    . & & & & & & & & & & & & & & & .                         ",
"                    + % & & & & & & & & & & & & & & .                         ",
"                  + + + % % & & & & & & & & & & & % .                         ",
"                  . * = - - & % % & & & & & & % ; > . .                       ",
"                . . , ' ) ! ~ - - - - - - ; ; ; { ] ^ . .                     ",
"                . / ( ( ( ( _ : < ! ! ! ! [ } | ( ( ( 1 .                     ",
"                . 2 ( ( ( ( ( 3 4 ( ( ( ( ( ( ( ( ( ( ( .                     ",
"                . 2 ( ( ( ( 5 ( ( ( ( ( ( 5 ( ] 6 ( ( ( .                     ",
"                . 2 ( ( ( 6 7 ^ 1 ( ( ( ( ( ^ 8 9 ( ( ( .                     ",
"                . 2 ( ( ( 6 0 ^ 1 ( ( ( ( ( ^ a 9 ( ( ( .                     ",
"                . 2 ( ( ( 6 0 ^ 1 ( ( ( ( ( ^ a 9 ( ( ( .                     ",
"                . 2 ( ( ( _ b c d ( ( ( ( ( e f g ( ( ( .                     ",
"                . 2 ( ( h i j k j ( ( ( ( ( ( e c ( ( ( .                     ",
"                . l m n o p k k ( ( ( ( ( ( ( k k n q m .                     ",
"                . @ @ @ @ ( r k ( ( ( ( ( ( ( k s @ @ @ .                     ",
"                . @ @ @ @ ( t k ( ( ( ( ( ( ( ( u @ @ @ .                     ",
"                . @ @ @ @ . v w ( ( ( ( ( ( ( ^ . @ @ @ .                     ",
"                . @ @ @ @ . x y ( ( ( ( ( ( z ^ . @ @ @ .                     ",
"                . @ @ @ @ . A B ( ( ( ( ( ( ) t . @ @ @ .                     ",
"                . . . . . C D E F ( ( ( ( F E G H . . . .                     ",
"                        . I J K L M N O J P Q R S .                           ",
"                        . I T U V W X X Y Z `  ....                           ",
"                        . +.@.#.#.#.Y $.#.#.#. ....                           ",
"                        . %.T #.#.#.Y &.#.#.#. ....                           ",
"                        . ..#.#.#.#.Y &.#.#.#. ....                           ",
"                        . *.#.#.#.#.Y &.#.T T #.=..                           ",
"                        . -.#.#.#.#.Y ;.-.>.,.,.'..                           ",
"                        ).!.~.~.~.{.].^./.(._._.:.<.                          ",
"                      . H [.}.|.1.#.].2.3.4.5.5.4.:.. .                       ",
"                    . S 6.7.8.9.0.#.@.a.b.b.b.b.c.8.d..                       ",
"                    . . . . . . . . e.f.. . . . . . . .                       ",
"                                                                              ",
"                                                                              ",
"                                                                              ",
"                                                                              ",
"                                                                              "};
