/* XPM */
static char * running_1_xpm[] = {
"39 55 339 2",
"  	c None",
". 	c #000000",
"+ 	c #9B9996",
"@ 	c #9C9A97",
"# 	c #A1A09D",
"$ 	c #A3A19E",
"% 	c #8E8880",
"& 	c #8D877F",
"* 	c #989591",
"= 	c #A59F99",
"- 	c #A6A099",
"; 	c #A29E99",
"> 	c #9E9C99",
", 	c #9F9C99",
"' 	c #999794",
") 	c #85837F",
"! 	c #ADA398",
"~ 	c #84827F",
"{ 	c #989693",
"] 	c #A9A7A5",
"^ 	c #93918E",
"/ 	c #8B8986",
"( 	c #817F7C",
"_ 	c #9D9C99",
": 	c #9E9B98",
"< 	c #94918E",
"[ 	c #9C9A96",
"} 	c #9B9693",
"| 	c #9D9B97",
"1 	c #9B9692",
"2 	c #959390",
"3 	c #99908B",
"4 	c #A66F54",
"5 	c #A77554",
"6 	c #A27454",
"7 	c #A47555",
"8 	c #C88F67",
"9 	c #AB7B58",
"0 	c #8A827C",
"a 	c #9D9B98",
"b 	c #9F9C98",
"c 	c #998D88",
"d 	c #BC7C58",
"e 	c #BD7D58",
"f 	c #AAA8A7",
"g 	c #AF8F81",
"h 	c #927C72",
"i 	c #92908D",
"j 	c #C2BCBC",
"k 	c #D7D1D1",
"l 	c #E9E6E6",
"m 	c #EFECEC",
"n 	c #BD7C58",
"o 	c #BF7D58",
"p 	c #CFC9C9",
"q 	c #DBD6D6",
"r 	c #EBE8E9",
"s 	c #A8948B",
"t 	c #BFB6B2",
"u 	c #83817E",
"v 	c #DDDCDC",
"w 	c #F0EFEF",
"x 	c #E3E0E0",
"y 	c #D9D4D4",
"z 	c #EDECEC",
"A 	c #EDEBEB",
"B 	c #E3DFDF",
"C 	c #D1CCCC",
"D 	c #968780",
"E 	c #B1B1AF",
"F 	c #9A9895",
"G 	c #988D88",
"H 	c #C6C2C2",
"I 	c #D8D2D2",
"J 	c #D3CDCD",
"K 	c #D4CECE",
"L 	c #EDC793",
"M 	c #EFC994",
"N 	c #D4CFCF",
"O 	c #CFCACA",
"P 	c #9E9A97",
"Q 	c #908F8C",
"R 	c #888683",
"S 	c #AFABAB",
"T 	c #BEB9B9",
"U 	c #BFBABA",
"V 	c #F7CF98",
"W 	c #FAD299",
"X 	c #BAB5B6",
"Y 	c #BBB6B6",
"Z 	c #93918F",
"` 	c #6C6B68",
" .	c #F8D098",
"..	c #F9D198",
"+.	c #686867",
"@.	c #A5A4A1",
"#.	c #7B7976",
"$.	c #584F4B",
"%.	c #A07654",
"&.	c #F6CE96",
"*.	c #F9D098",
"=.	c #F5CD96",
"-.	c #837057",
";.	c #7A7876",
">.	c #A2A09E",
",.	c #60605E",
"'.	c #784A36",
").	c #F1C791",
"!.	c #F4CA93",
"~.	c #D28D64",
"{.	c #D38E65",
"].	c #C6865F",
"^.	c #4A4644",
"/.	c #868482",
"(.	c #878583",
"_.	c #484645",
":.	c #B47B56",
"<.	c #F2C690",
"[.	c #F8D198",
"}.	c #F4C993",
"|.	c #D0875F",
"1.	c #BD7A55",
"2.	c #4A352C",
"3.	c #6C6A68",
"4.	c #A9A7A3",
"5.	c #ABA9A6",
"6.	c #989796",
"7.	c #999998",
"8.	c #908C8A",
"9.	c #B07B55",
"0.	c #F3C690",
"a.	c #F9D199",
"b.	c #F5CB94",
"c.	c #BB7752",
"d.	c #8C7F7A",
"e.	c #999897",
"f.	c #9E9D9C",
"g.	c #D6D3CE",
"h.	c #D7D5D1",
"i.	c #BDBCBB",
"j.	c #BDBCBA",
"k.	c #BAB9B8",
"l.	c #A59590",
"m.	c #A06E51",
"n.	c #A47554",
"o.	c #A57554",
"p.	c #A27453",
"q.	c #A27456",
"r.	c #A08177",
"s.	c #B7B7B6",
"t.	c #BFBEBC",
"u.	c #DBD8D3",
"v.	c #E1DED9",
"w.	c #636260",
"x.	c #D7D4CF",
"y.	c #DFDCD7",
"z.	c #C9C7C4",
"A.	c #C2C0BF",
"B.	c #BBBAB9",
"C.	c #BCBAB9",
"D.	c #6A615D",
"E.	c #CE865E",
"F.	c #7A5B4C",
"G.	c #B7B5B4",
"H.	c #BBB9B8",
"I.	c #C0BEBD",
"J.	c #E1DED8",
"K.	c #BEBBB7",
"L.	c #DDDAD5",
"M.	c #C5C4C1",
"N.	c #BCBBBA",
"O.	c #666462",
"P.	c #B6A593",
"Q.	c #B8A695",
"R.	c #6F6760",
"S.	c #C7C5C2",
"T.	c #CBC9C6",
"U.	c #D8D6D1",
"V.	c #E0DDD8",
"W.	c #BCBAB5",
"X.	c #DBD9D4",
"Y.	c #D6D3CF",
"Z.	c #69706F",
"`.	c #92D7D5",
" +	c #94D9D8",
".+	c #607E7D",
"++	c #DAD7D3",
"@+	c #DAD7D2",
"#+	c #6D7372",
"$+	c #99DDDB",
"%+	c #9AE0DE",
"&+	c #628180",
"*+	c #DEDBD6",
"=+	c #676663",
"-+	c #8D8B88",
";+	c #D1CEC9",
">+	c #666562",
",+	c #8C8A87",
"'+	c #787775",
")+	c #DBD9D5",
"!+	c #D4D3D1",
"~+	c #697170",
"{+	c #CECDCB",
"]+	c #D8D6D3",
"^+	c #989692",
"/+	c #D2D0CB",
"(+	c #DDDAD6",
"_+	c #D4D3D0",
":+	c #D3D2D0",
"<+	c #D2D1CF",
"[+	c #697070",
"}+	c #CDCCCA",
"|+	c #BAB8B4",
"1+	c #DEDCD8",
"2+	c #D7D6D3",
"3+	c #D4D4D2",
"4+	c #D2D2D0",
"5+	c #DAD9D5",
"6+	c #CBAE86",
"7+	c #F4D2A5",
"8+	c #F2D1A3",
"9+	c #E1B590",
"0+	c #D0987E",
"a+	c #DBD6D2",
"b+	c #DCD9D3",
"c+	c #F2D0A4",
"d+	c #F3D1A4",
"e+	c #CEAC7B",
"f+	c #F8CF98",
"g+	c #F2C791",
"h+	c #E1A97A",
"i+	c #D2CFCC",
"j+	c #C5C4C3",
"k+	c #636B6A",
"l+	c #62807F",
"m+	c #D2CDC7",
"n+	c #F6CE97",
"o+	c #CFAD7C",
"p+	c #F6CD96",
"q+	c #C9825B",
"r+	c #C57F59",
"s+	c #D1CECB",
"t+	c #CFCECC",
"u+	c #C2C1BF",
"v+	c #BBBAB8",
"w+	c #D7D4D0",
"x+	c #E4AE7E",
"y+	c #E3AD7D",
"z+	c #F9D299",
"A+	c #B8855C",
"B+	c #DEA275",
"C+	c #C17D58",
"D+	c #965B40",
"E+	c #D0CECB",
"F+	c #CAC9C8",
"G+	c #B8B7B6",
"H+	c #C9C7C5",
"I+	c #4E2F24",
"J+	c #A26346",
"K+	c #C28861",
"L+	c #DEA476",
"M+	c #A76945",
"N+	c #965C41",
"O+	c #8C543B",
"P+	c #854E37",
"Q+	c #BEBDBC",
"R+	c #636A6A",
"S+	c #94D7D5",
"T+	c #96DAD8",
"U+	c #607D7D",
"V+	c #424241",
"W+	c #454342",
"X+	c #A7A6A5",
"Y+	c #B6B5B4",
"Z+	c #5E5D5D",
"`+	c #383A37",
" @	c #3B3D36",
".@	c #434343",
"+@	c #6C6B6A",
"@@	c #21201E",
"#@	c #818181",
"$@	c #3A3939",
"%@	c #21201F",
"&@	c #71706F",
"*@	c #454444",
"=@	c #51504B",
"-@	c #56564C",
";@	c #7E7E7D",
">@	c #0F0D08",
",@	c #3B3A39",
"'@	c #404040",
")@	c #515151",
"!@	c #4F4F4F",
"~@	c #474646",
"{@	c #484847",
"]@	c #484747",
"^@	c #484848",
"/@	c #464646",
"(@	c #4C4C4C",
"_@	c #535353",
":@	c #808080",
"<@	c #505050",
"[@	c #525252",
"}@	c #3B3B3B",
"|@	c #707070",
"1@	c #393939",
"2@	c #454545",
"3@	c #424242",
"4@	c #4B4B4B",
"5@	c #333333",
"6@	c #393837",
"7@	c #383736",
"8@	c #373635",
"9@	c #343434",
"0@	c #444443",
"a@	c #3F3E3E",
"b@	c #424141",
"c@	c #474747",
"d@	c #373636",
"e@	c #50504F",
"f@	c #767675",
"g@	c #6F6F6F",
"h@	c #777777",
"i@	c #6E6E6E",
"j@	c #5B5B5B",
"k@	c #646363",
"l@	c #646463",
"m@	c #646464",
"n@	c #4A4A4A",
"o@	c #696969",
"p@	c #676767",
"q@	c #5E5E5E",
"r@	c #727272",
"s@	c #757575",
"t@	c #737373",
"u@	c #626262",
"v@	c #636363",
"w@	c #545454",
"x@	c #373737",
"                                                                              ",
"                                                                              ",
"                        . . . . . . . . . . . . .                             ",
"                      . . + @ + @ @ @ @ @ # @ @ . . .                         ",
"                    . . $ @ % & * = - ; > , - - , @ . .                       ",
"                  . . ' + ) @ @ @ @ @ @ @ @ @ @ ! ~ { .                       ",
"                  . ] ^ @ @ @ @ @ @ @ @ @ @ @ @ @ / ( .                       ",
"                  . @ _ @ @ @ @ @ @ @ @ @ @ @ @ @ : < .                       ",
"                  . @ > @ @ @ @ @ @ @ @ @ @ @ @ @ @ [ .                       ",
"                  . @ } @ @ @ @ @ @ @ @ @ @ @ @ @ @ | . .                     ",
"                  . ; 1 @ @ @ @ @ @ @ @ @ @ @ @ @ 2 > + .                     ",
"                  . @ 3 4 5 @ @ 6 7 @ 8 9 6 6 @ 0 a b : .                     ",
"                  . + c . . . @ . . d e . . . . f . g h .                     ",
"                  . i c . j k l m . n o . p q l r . s t .                     ",
"                  . u c . v w x y . . . . z A B C . D E .                     ",
"                  . F G . H I J K . L M . N k J O . P Q .                     ",
"                  . R ~ . S T T U . V W . X T T Y . i . .                     ",
"                  . Z ` . . . . . .  .... . . . . . +..                       ",
"                  . @.#.$.%.&....... . .....*.*.=.-.;..                       ",
"                    . >.,.'.). . . . . . .!.~.{.].^./..                       ",
"                  . . . (._.:.<.[. . . . .}.|.1.2.3.. .                       ",
"                  . 4.5.6.7.8.9.0.W a.a.a.b.c.d.e.f.. .                       ",
"                  . g.h.i.j.k.l.m.6 n.o.p.q.r.s.t.u.v..                       ",
"                . w.x.y.y.z.A.B.C.D.E.|.F.G.H.I.u.y.J.. .                     ",
"                . K.y.y.y.y.L.M.N.O.P.Q.R.S.T.U.y.y.y.V..                     ",
"                . W.y.y.y.y.y.X.Y.Z.`. +.+++y.y.y.y.y.y..                     ",
"                . W.y.y.y.y.@+y.V.#+$+%+&+@+y.u.*+y.y.y..                     ",
"                . W.y.y.y.*+=+v.V.#+$+%+&+@+v.-+;+y.y.y..                     ",
"                . W.y.y.y.*+>+v.V.#+$+%+&+@+v.,+;+y.y.y..                     ",
"                . W.y.y.y.*+>+v.V.#+$+%+&+@+v.,+;+y.y.y..                     ",
"                . W.y.y.y.L.'+)+!+~+$+%+&+{+]+^+/+y.y.y..                     ",
"                . W.y.y.(+_+:+<+:+[+$+%+&+}+<+]+)+y.y.y..                     ",
"                . |+1+2+3+4+<+<+:+[+$+%+&+}+<+<+<+2+5+1+.                     ",
"                . 6+7+8+9+0+a+<+:+[+$+%+&+}+<+<+b+c+d+7+.                     ",
"                . e+f+g+h+. i+<+j+k+$+%+l+j.y.y.m+n+b. ..                     ",
"                . o+p+q+r+. s+t+u+k+$+%+l+v+w+v.x+y+x+z+.                     ",
"                . A+B+C+D+. E+F+i.k+$+%+l+G+H+v.I+J+K+L+.                     ",
"                . M+N+O+P+. G.Q+i.R+S+T+U+G+i.i+I+. . . .                     ",
"                . . . . . V+W+X+Y+Z+`+ @.@Y+X++@@@.                           ",
"                        . #@$@%@&@*@=@-@$@;@>@,@'@.                           ",
"                        . #@)@!@~@{@]@]@^@/@(@_@.@.                           ",
"                        . :@<@[@[@[@^@}@[@[@[@_@.@.                           ",
"                        . |@)@[@[@[@^@1@[@[@[@_@.@.                           ",
"                        . .@[@[@[@[@^@1@[@[@[@_@.@.                           ",
"                        . 2@[@[@[@[@^@1@[@)@)@[@3@.                           ",
"                        . 4@[@[@[@[@^@5@4@6@7@7@8@.                           ",
"                        9@0@a@a@a@b@c@d@e@f@g@g@h@i@                          ",
"                      . @@j@k@l@m@. c@n@o@p@q@q@p@h@.                         ",
"                    . '@r@s@t@u@v@. <@w@. . . . . . .                         ",
"                    . . . . . . . . x@                                        ",
"                                                                              ",
"                                                                              ",
"                                                                              ",
"                                                                              ",
"                                                                              "};
