/* XPM */
static char * floor_xpm[] = {
"50 50 6 1",
" 	c #000000",
".	c #363643",
"+	c #050404",
"@	c #0F0F0F",
"#	c #272727",
"$	c #322F2F",
"                                                  ",
"   ............................................   ",
"  ..............................................  ",
" ................................................ ",
" ..++++++++++++++++++++++++++++++++++++++++++++.. ",
" ..@##########################################@.. ",
" ..@$$$$$$$$$$$$$$$$$$$$$$$$$$$$$$$$$$$$$$$$$$@.. ",
" ..@$$$$$$$$$$$$$$$$$$$$$$$$$$$$$$$$$$$$$$$$$$@.. ",
" ..@$$$$$$$$$$$$$$$$$$$$$$$$$$$$$$$$$$$$$$$$$$@.. ",
" ..@$$$$$$$$$$$$$$$$$$$$$$$$$$$$$$$$$$$$$$$$$$@.. ",
" ..@@@@@@@@@@@@@@@@@@@@@@@@@@@@@@@@@@@@@@@@@@@@.. ",
" ..++++++++++++++++++++++++++++++++++++++++++++.. ",
" ..@$$$$$$$$$$$$$$$$$$$$$$$$$$$$$$$$$$$$$$$$$$@.. ",
" ..@$$$$$$$$$$$$$$$$$$$$$$$$$$$$$$$$$$$$$$$$$$@.. ",
" ..@$$$$$$$$$$$$$$$$$$$$$$$$$$$$$$$$$$$$$$$$$$@.. ",
" ..@$$$$$$$$$$$$$$$$$$$$$$$$$$$$$$$$$$$$$$$$$$@.. ",
" ..@@@@@@@@@@@@@@@@@@@@@@@@@@@@@@@@@@@@@@@@@@@@.. ",
" ..++++++++++++++++++++++++++++++++++++++++++++.. ",
" ..@##########################################@.. ",
" ..@$$$$$$$$$$$$$$$$$$$$$$$$$$$$$$$$$$$$$$$$$$@.. ",
" ..@$$$$$$$$$$$$$$$$$$$$$$$$$$$$$$$$$$$$$$$$$$@.. ",
" ..@$$$$$$$$$$$$$$$$$$$$$$$$$$$$$$$$$$$$$$$$$$@.. ",
" ..@$$$$$$$$$$$$$$$$$$$$$$$$$$$$$$$$$$$$$$$$$$@.. ",
" ..@@@@@@@@@@@@@@@@@@@@@@@@@@@@@@@@@@@@@@@@@@@@.. ",
" ..++++++++++++++++++++++++++++++++++++++++++++.. ",
" ..@##########################################@.. ",
" ..@$$$$$$$$$$$$$$$$$$$$$$$$$$$$$$$$$$$$$$$$$$@.. ",
" ..@$$$$$$$$$$$$$$$$$$$$$$$$$$$$$$$$$$$$$$$$$$@.. ",
" ..@$$$$$$$$$$$$$$$$$$$$$$$$$$$$$$$$$$$$$$$$$$@.. ",
" ..@$$$$$$$$$$$$$$$$$$$$$$$$$$$$$$$$$$$$$$$$$$@.. ",
" ..@@@@@@@@@@@@@@@@@@@@@@@@@@@@@@@@@@@@@@@@@@@@.. ",
" ..++++++++++++++++++++++++++++++++++++++++++++.. ",
" ..@##########################################@.. ",
" ..@$$$$$$$$$$$$$$$$$$$$$$$$$$$$$$$$$$$$$$$$$$@.. ",
" ..@$$$$$$$$$$$$$$$$$$$$$$$$$$$$$$$$$$$$$$$$$$@.. ",
" ..@$$$$$$$$$$$$$$$$$$$$$$$$$$$$$$$$$$$$$$$$$$@.. ",
" ..@$$$$$$$$$$$$$$$$$$$$$$$$$$$$$$$$$$$$$$$$$$@.. ",
" ..@@@@@@@@@@@@@@@@@@@@@@@@@@@@@@@@@@@@@@@@@@@@.. ",
" ..++++++++++++++++++++++++++++++++++++++++++++.. ",
" ..@##########################################@.. ",
" ..@$$$$$$$$$$$$$$$$$$$$$$$$$$$$$$$$$$$$$$$$$$@.. ",
" ..@$$$$$$$$$$$$$$$$$$$$$$$$$$$$$$$$$$$$$$$$$$@.. ",
" ..@$$$$$$$$$$$$$$$$$$$$$$$$$$$$$$$$$$$$$$$$$$@.. ",
" ..@$$$$$$$$$$$$$$$$$$$$$$$$$$$$$$$$$$$$$$$$$$@.. ",
" ..@@@@@@@@@@@@@@@@@@@@@@@@@@@@@@@@@@@@@@@@@@@@.. ",
" ................................................ ",
" ................................................ ",
"  ..............................................  ",
"   ............................................   ",
"                                                  "};
