/* XPM */
static char * floor_x_xpm[] = {
"50 50 2 1",
" 	c #000000",
".	c #363643",
"                                                  ",
"   ...................      ...................   ",
"  .....................    .....................  ",
" .......................  ....................... ",
" .......................  ....................... ",
" .......................  ....................... ",
" .......................  ....................... ",
" .......................  ....................... ",
" .......................  ....................... ",
" .......................  ....................... ",
" .......................  ....................... ",
" .......................  ....................... ",
" .......................  ....................... ",
" .......................  ....................... ",
" .......................  ....................... ",
" .......................  ....................... ",
" .......................  ....................... ",
" .......................  ....................... ",
" .......................  ....................... ",
" .......................  ....................... ",
" .......................  ....................... ",
"  .....................    .....................  ",
"   ...................      ...................   ",
"                                                  ",
"                                                  ",
"   ...................      ...................   ",
"  .....................    .....................  ",
" .......................  ....................... ",
" .......................  ....................... ",
" .......................  ....................... ",
" .......................  ....................... ",
" .......................  ....................... ",
" .......................  ....................... ",
" .......................  ....................... ",
" .......................  ....................... ",
" .......................  ....................... ",
" .......................  ....................... ",
" .......................  ....................... ",
" .......................  ....................... ",
" .......................  ....................... ",
" .......................  ....................... ",
" .......................  ....................... ",
" .......................  ....................... ",
" .......................  ....................... ",
" .......................  ....................... ",
" .......................  ....................... ",
" .......................  ....................... ",
"  .....................    .....................  ",
"   ...................      ...................   ",
"                                                  "};
