/* XPM */
static char * back_perso_xpm[] = {
"39 55 184 2",
"  	c None",
". 	c #000000",
"+ 	c #9B9996",
"@ 	c #9C9A97",
"# 	c #8E8880",
"$ 	c #A1A09D",
"% 	c #A3A19E",
"& 	c #85837F",
"* 	c #ADA398",
"= 	c #9F9C99",
"- 	c #999794",
"; 	c #9D9B97",
"> 	c #9E9C99",
", 	c #9A9895",
"' 	c #7B7976",
") 	c #A9A7A3",
"! 	c #ABA9A6",
"~ 	c #D6D3CE",
"{ 	c #D7D5D1",
"] 	c #BDBCBB",
"^ 	c #BDBCBA",
"/ 	c #BAB9B8",
"( 	c #BFBEBC",
"_ 	c #DBD8D3",
": 	c #E1DED9",
"< 	c #636260",
"[ 	c #D7D4CF",
"} 	c #DFDCD7",
"| 	c #C9C7C4",
"1 	c #C2C0BF",
"2 	c #BBBAB9",
"3 	c #BCBAB9",
"4 	c #B7B5B4",
"5 	c #BBB9B8",
"6 	c #C0BEBD",
"7 	c #E1DED8",
"8 	c #BEBBB7",
"9 	c #DDDAD5",
"0 	c #C5C4C1",
"a 	c #BCBBBA",
"b 	c #C7C5C2",
"c 	c #CBC9C6",
"d 	c #D8D6D1",
"e 	c #E0DDD8",
"f 	c #BCBAB5",
"g 	c #DBD9D4",
"h 	c #D6D3CF",
"i 	c #DAD7D2",
"j 	c #DEDBD6",
"k 	c #676663",
"l 	c #8D8B88",
"m 	c #D1CEC9",
"n 	c #666562",
"o 	c #8C8A87",
"p 	c #787775",
"q 	c #DBD9D5",
"r 	c #D4D3D1",
"s 	c #D8D6D3",
"t 	c #989692",
"u 	c #D2D0CB",
"v 	c #DDDAD6",
"w 	c #D4D3D0",
"x 	c #D3D2D0",
"y 	c #D2D1CF",
"z 	c #BAB8B4",
"A 	c #DEDCD8",
"B 	c #D7D6D3",
"C 	c #D4D4D2",
"D 	c #D2D2D0",
"E 	c #DAD9D5",
"F 	c #CBAE86",
"G 	c #F4D2A5",
"H 	c #F2D1A3",
"I 	c #E1B590",
"J 	c #DBD6D2",
"K 	c #DCD9D3",
"L 	c #F2D0A4",
"M 	c #F3D1A4",
"N 	c #CEAC7B",
"O 	c #F8CF98",
"P 	c #F2C791",
"Q 	c #E1A97A",
"R 	c #D2CFCC",
"S 	c #D2CDC7",
"T 	c #F6CE97",
"U 	c #F5CB94",
"V 	c #F8D098",
"W 	c #CFAD7C",
"X 	c #F6CD96",
"Y 	c #C9825B",
"Z 	c #C57F59",
"` 	c #D1CECB",
" .	c #CFCECC",
"..	c #E3AD7D",
"+.	c #E4AE7E",
"@.	c #F9D299",
"#.	c #B8855C",
"$.	c #DEA275",
"%.	c #C17D58",
"&.	c #965B40",
"*.	c #D0CECB",
"=.	c #CAC9C8",
"-.	c #C9C7C5",
";.	c #A26346",
">.	c #C28861",
",.	c #DEA476",
"'.	c #A76945",
").	c #965C41",
"!.	c #8C543B",
"~.	c #854E37",
"{.	c #BEBDBC",
"].	c #834C35",
"^.	c #AA6C4C",
"/.	c #CB845D",
"(.	c #424241",
"_.	c #454342",
":.	c #A7A6A5",
"<.	c #B6B5B4",
"[.	c #6C6B6A",
"}.	c #21201E",
"|.	c #818181",
"1.	c #3A3939",
"2.	c #21201F",
"3.	c #71706F",
"4.	c #454444",
"5.	c #51504B",
"6.	c #56564C",
"7.	c #7E7E7D",
"8.	c #0F0D08",
"9.	c #3B3A39",
"0.	c #404040",
"a.	c #515151",
"b.	c #4F4F4F",
"c.	c #474646",
"d.	c #484847",
"e.	c #484747",
"f.	c #484848",
"g.	c #464646",
"h.	c #4C4C4C",
"i.	c #535353",
"j.	c #434343",
"k.	c #808080",
"l.	c #505050",
"m.	c #525252",
"n.	c #3B3B3B",
"o.	c #707070",
"p.	c #393939",
"q.	c #454545",
"r.	c #424242",
"s.	c #4B4B4B",
"t.	c #333333",
"u.	c #393837",
"v.	c #383736",
"w.	c #373635",
"x.	c #343434",
"y.	c #444443",
"z.	c #3F3E3E",
"A.	c #424141",
"B.	c #474747",
"C.	c #373636",
"D.	c #50504F",
"E.	c #767675",
"F.	c #6F6F6F",
"G.	c #777777",
"H.	c #6E6E6E",
"I.	c #5B5B5B",
"J.	c #646363",
"K.	c #646463",
"L.	c #646464",
"M.	c #4A4A4A",
"N.	c #696969",
"O.	c #676767",
"P.	c #5E5E5E",
"Q.	c #727272",
"R.	c #757575",
"S.	c #737373",
"T.	c #626262",
"U.	c #636363",
"V.	c #545454",
"W.	c #5C5C5C",
"X.	c #5D5D5D",
"Y.	c #747474",
"Z.	c #373737",
"`.	c #5F5F5F",
"                                                                              ",
"                                                                              ",
"                        . . . . . . . . . . . . .                             ",
"                      . . + @ + # # # @ @ $ # @ . . .                         ",
"                    . . % @ & & & * * * @ @ @ @ = @ . .                       ",
"                  . . - @ * & @ @ @ @ @ @ @ @ @ @ @ # .                       ",
"                  . @ @ & * @ @ @ @ @ @ @ @ @ @ @ @ @ .                       ",
"                  . @ @ @ @ @ @ @ @ @ @ @ @ @ @ @ @ @ .                       ",
"                  . @ @ @ @ @ @ @ @ @ @ @ @ @ @ @ @ # .                       ",
"                  . @ * @ @ @ @ @ @ @ @ @ @ @ @ @ @ ; . .                     ",
"                  . @ * @ @ @ @ @ @ @ @ @ @ @ @ @ @ > + .                     ",
"                  . @ # @ @ @ @ @ @ @ @ @ @ @ @ @ @ # @ .                     ",
"                  . @ # @ @ @ @ @ @ @ @ @ @ @ @ @ @ @ # .                     ",
"                  . @ # @ @ @ @ @ @ @ @ @ @ @ @ @ @ * # .                     ",
"                  . @ * @ @ @ @ @ @ @ @ @ @ @ @ @ @ @ * .                     ",
"                  . , * @ @ @ @ @ @ @ @ @ @ @ @ @ @ @ & .                     ",
"                  . @ @ & @ @ @ @ @ @ @ @ @ @ @ @ @ @ . .                     ",
"                  . @ @ @ @ @ @ @ @ @ @ @ @ @ @ @ @ @ .                       ",
"                  . & @ @ @ @ @ @ @ @ @ @ @ @ @ @ @ @ .                       ",
"                    . @ ' @ @ @ @ @ @ @ @ @ @ @ @ @ @ .                       ",
"                  . . . ' @ @ @ @ @ @ @ @ @ @ @ @ ' ' .                       ",
"                  . ) ! ' ' @ @ @ @ @ @ @ @ @ ' @ & . .                       ",
"                  . ~ { ] ^ / ' ' ' ' ' ' @ @ @ ( _ : .                       ",
"                . < [ } } | 1 2 3 ^ ^ ^ ^ 4 5 6 _ } 7 . .                     ",
"                . 8 } } } } 9 0 a ^ ^ ^ ^ b c d } } } e .                     ",
"                . f } } } } } g h } } } } } } } } } } } .                     ",
"                . f } } } } i } } } } } } i } _ j } } } .                     ",
"                . f } } } j k : e } } } } } : l m } } } .                     ",
"                . f } } } j n : e } } } } } : o m } } } .                     ",
"                . f } } } j n : e } } } } } : o m } } } .                     ",
"                . f } } } 9 p q r } } } } } s t u } } } .                     ",
"                . f } } v w x y x } } } } } } s q } } } .                     ",
"                . z A B C D y y } } } } } } } y y B E A .                     ",
"                . F G H I } J y } } } } } } } y K L M G .                     ",
"                . N O P Q } R y } } } } } } } } S T U V .                     ",
"                . W X Y Z . `  .} } } } } } } : . ..+.@..                     ",
"                . #.$.%.&.. *.=.} } } } } } -.: . ;.>.,..                     ",
"                . '.).!.~.. 4 {.} } } } } } ] R . ].^./..                     ",
"                . . . . . (._.:.<.} } } } <.:.[.}.. . . .                     ",
"                        . |.1.2.3.4.5.6.1.7.8.9.0..                           ",
"                        . |.a.b.c.d.e.e.f.g.h.i.j..                           ",
"                        . k.l.m.m.m.f.n.m.m.m.i.j..                           ",
"                        . o.a.m.m.m.f.p.m.m.m.i.j..                           ",
"                        . j.m.m.m.m.f.p.m.m.m.i.j..                           ",
"                        . q.m.m.m.m.f.p.m.a.a.m.r..                           ",
"                        . s.m.m.m.m.f.t.s.u.v.v.w..                           ",
"                        x.y.z.z.z.A.B.C.D.E.F.F.G.H.                          ",
"                      . }.I.J.K.L.m.B.M.N.O.P.P.O.G.. .                       ",
"                    . 0.Q.R.S.T.U.m.l.V.W.W.W.W.X.S.Y..                       ",
"                    . . . . . . . . Z.`.. . . . . . . .                       ",
"                                                                              ",
"                                                                              ",
"                                                                              ",
"                                                                              ",
"                                                                              "};
