/* XPM */
static char * left_perso_1_xpm[] = {
"39 55 52 1",
" 	c None",
".	c #000000",
"+	c #365B35",
"@	c #437742",
"#	c #1C2B1C",
"$	c #2A422A",
"%	c #3A593A",
"&	c #FFFFFF",
"*	c #C7C5C2",
"=	c #DFDCD7",
"-	c #BDBCBA",
";	c #E1DED9",
">	c #D8D6D3",
",	c #CECDCB",
"'	c #DBD9D5",
")	c #D2D1CF",
"!	c #CDCCCA",
"~	c #D7D4D0",
"{	c #BBBAB8",
"]	c #CFCECC",
"^	c #C9C7C5",
"/	c #B8B7B6",
"(	c #CAC9C8",
"_	c #BDBCBB",
":	c #BEBDBC",
"<	c #A7A6A5",
"[	c #B6B5B4",
"}	c #0F0D08",
"|	c #7E7E7D",
"1	c #21201F",
"2	c #464646",
"3	c #484848",
"4	c #484747",
"5	c #484847",
"6	c #474646",
"7	c #525252",
"8	c #3B3B3B",
"9	c #393939",
"0	c #515151",
"a	c #393837",
"b	c #4B4B4B",
"c	c #333333",
"d	c #373636",
"e	c #474747",
"f	c #424141",
"g	c #3F3E3E",
"h	c #676767",
"i	c #4A4A4A",
"j	c #646464",
"k	c #5C5C5C",
"l	c #545454",
"m	c #636363",
"                                       ",
"                                       ",
"                                       ",
"                ..........             ",
"              ...+@@@@@@+..            ",
"             ..++@@@@@@@@+..           ",
"            ..++@@@@@@@@+++..          ",
"            .+++++@@@@@@++++.          ",
"            .+++++++++++++++.          ",
"            .#+++++++++++++#.          ",
"           ..$#+++++++++++#$.          ",
"           .$$$###########$$.          ",
"           .$$$$$$$$$$$$$$$$.          ",
"           .$$$$$$$$$$$$$$$$.          ",
"           .%$$$$$$$$$$$$$$%.          ",
"           .%%%%%%%%%%%%%%%%.          ",
"           .%&&&%%%%%%%%%%%%.          ",
"           .%&&&%%%%%%%%%%%%.          ",
"           .%%%%%%%%%%%%%%%%.          ",
"           ..@%%%%%%%%%%%%%@.          ",
"            .@@@@@@@@@@@@@@@.          ",
"            ...@@@@@@@@@@@@..          ",
"            ..@@@@@@@@@@@@@.           ",
"             ..@@@@@@@@@@@@.           ",
"              ..@@@@@@@@@...           ",
"               ......**...             ",
"               .==-==..=.              ",
"               .;=-===.;.              ",
"               .;=.===.;.              ",
"               .;=.===.;.              ",
"               .>,.===.'.              ",
"               .)!.===.).              ",
"               .)!.===.).              ",
"               .)!.===.).              ",
"               .=-.+++.).              ",
"               .~{.+++.].              ",
"               .^/.+++.(.              ",
"               ._/.+++.:.              ",
"               .<[.+++.<.              ",
"               .}|.....1               ",
"                .234456.               ",
"                .778377.               ",
"                .779377.               ",
"                .779377.               ",
"                .079377.               ",
"                .abc377.               ",
"               ....defg.               ",
"              .hhh.iggj.               ",
"              .ggkklggm.               ",
"              ..........               ",
"                                       ",
"                                       ",
"                                       ",
"                                       ",
"                                       "};
