/* XPM */
static char * computer_xpm[] = {
"50 100 13 1",
" 	c None",
".	c #2D2B2B",
"+	c #363636",
"@	c #000000",
"#	c #3F3F3F",
"$	c #363643",
"%	c #4B4B4B",
"&	c #484747",
"*	c #343434",
"=	c #EAEAEA",
"-	c #C74210",
";	c #FFFFFF",
">	c #383838",
"                                                  ",
"                                                  ",
"                                                  ",
"                                                  ",
"                                                  ",
"                                                  ",
"                                                  ",
"                                                  ",
"                                                  ",
"                                                  ",
"                                                  ",
"                                                  ",
"                                                  ",
"                                                  ",
"                                                  ",
"                                                  ",
"                                                  ",
"                                                  ",
"                                                  ",
"                                                  ",
"                                                  ",
"                                                  ",
"                                                  ",
"                                                  ",
"                                                  ",
"                                                  ",
"                                                  ",
"                                                  ",
"                                                  ",
"                                                  ",
"                                                  ",
"                                                  ",
"                                                  ",
"                                                  ",
"                                                  ",
"                                                  ",
"                                                  ",
"                                                  ",
"                                                  ",
"                                                  ",
"                                                  ",
"                                                  ",
"                                                  ",
"                                                  ",
"                                                  ",
"                                                  ",
"                                                  ",
"                   .++++++++                      ",
"                  .++++++++++                     ",
"                 .++++++++++++                    ",
"@@@@@@##########.++++++++++++++##############@@@@@",
"@@@$$$#########.++++++++++++++++#############$$@@@",
"@@$$$$%%%%%%.........................%%%%%%%%$$$@@",
"@$$$$$%%%%%%.%%%%%%%%%%%%%%%%%%%%%%%.%%%%%%%%$$$$@",
"@$$$$$%%%%%%.&&&&&&&&&&&&&&&&&&&&&&&.%%%%%%%%$$$$@",
"@$$$$$%%%%%%.&*********************&.%%%%%%%%$$$$@",
"@$$$$$%%%%%%.&*======-----========*&.%%%%%%%%$$$$@",
"@$$$$$%%%%%%.&*=====----;--=======*&.%%%%%%%%$$$$@",
"@$$$$$%%%%%%.&*====---;;----======*&.%%%%%%%%$$$$@",
"@$$$$$%%%%%%.&*====-;;--;---======*&.%%%%%%%%$$$$@",
"@$$$$$%%%%%%.&*====---;;----======*&.%%%%%%%%$$$$@",
"@$$$$$%%%%%%.&*=====----;--=======*&.%%%%%%%%$$$$@",
"@$$$$$%%%%%%.&*======-----========*&.%%%%%%%%$$$$@",
"@$$$$$%%%%%%.&*********************&.%%%%%%%%$$$$@",
"@$$$$$%%%%%%.%%%%%%%%%%%%%%%%%%%%%%%.%%%%%%%%$$$$@",
"@$$$$$%%%%%%.%%%%%%%%%%%%%%%%%%%%%%%.%%%%%%%%$$$$@",
"@$$$$$%%%%%%.%%%%%%%%%%%%%%%%%%%%%%%.%%%%%%%%$$$$@",
"@$$$$$%%%%%%.........................%%%%%%%%$$$$@",
"@$$$$$%%%%%%%*%>%>%>%>%>%>%>%>%>%>%*%%%%%%%%%$$$$@",
"@$$$$$%%%%%%%*>>>>>>>>>>>>>>>>>>>>>*%%>>%%%%%$$$$@",
"@$$$$$%%%%%%%*%>%>%>%>%>%>%>%>%>%>%*%%>>%%%%%$$$$@",
"@$$$$$%%%%%%%*>>>>>>>>>>>>>>>>>>>>>*%%>>%%%%%$$$$@",
"@$$$$$%%%%%%%******************>****%%%%%%%%%$$$$@",
"@$$$$$%%%%%%%%%%%%%%%%%%%%%%%%%%%%%%%%%%%%%%%$$$$@",
"@$$$$$%%%%%%%%%%%%%%%%%%%%%%%%%%%%%%%%%%%%%%%$$$$@",
"@$$$$$***************************************$$$$@",
"@$$$$$***************************************$$$$@",
"@$$$$$**$$$$$$$$$$$$$$$$$$$$$$$$$$$$$$$$$$$**$$$$@",
"@$$$$$**$$$$$$$$$$$$$$$$$$$$$$$$$$$$$$$$$$$**$$$$@",
"@$$$$$**$$$$$$$$$$$$$$$$$$$$$$$$$$$$$$$$$$$**$$$$@",
"@$$$$$**$$$$$$$$$$$$$$$$$$$$$$$$$$$$$$$$$$$**$$$$@",
"@$$$$$**$$$$$$$$$$$$$$$$$$$$$$$$$$$$$$$$$$$**$$$$@",
"@$$$$$**$$$$$$$$$$$$$$$$$$$$$$$$$$$$$$$$$$$**$$$$@",
"@$$$$$**$$$$$$$$$$$$$$$$$$$$$$$$$$$$$$$$$$$**$$$$@",
"@$$$$$**$$$$$$$$$$$$$$$$$$$$$$$$$$$$$$$$$$$**$$$$@",
"@$$$$$**$$$$$$$$$$$$$$$$$$$$$$$$$$$$$$$$$$$**$$$$@",
"@$$$$$**$$$$$$$$$$$$$$$$$$$$$$$$$$$$$$$$$$$**$$$$@",
"@$$$$$**$$$$$$$$$$$$$$$$$$$$$$$$$$$$$$$$$$$**$$$$@",
"@$$$$$**$$$$$$$$$$$$$$$$$$$$$$$$$$$$$$$$$$$$$$$$$@",
"@$$$$$$$$$$$$$$$$$$$$$$$$$$$$$$$$$$$$$$$$$$$$$$$$@",
"@$$$$$$$$$$$$$$$$$$$$$$$$$$$$$$$$$$$$$$$$$$$$$$$$@",
"@$$$$$$$$$$$$$$$$$$$$$$$$$$$$$$$$$$$$$$$$$$$$$$$$@",
"@$$$$$$$$$$$$$$$$$$$$$$$$$$$$$$$$$$$$$$$$$$$$$$$$@",
"@$$$$$$$$$$$$$$$$$$$$$$$$$$$$$$$$$$$$$$$$$$$$$$$$@",
"@$$$$$$$$$$$$$$$$$$$$$$$$$$$$$$$$$$$$$$$$$$$$$$$$@",
"@$$$$$$$$$$$$$$$$$$$$$$$$$$$$$$$$$$$$$$$$$$$$$$$$@",
"@$$$$$$$$$$$$$$$$$$$$$$$$$$$$$$$$$$$$$$$$$$$$$$$$@",
"@@$$$$$$$$$$$$$$$$$$$$$$$$$$$$$$$$$$$$$$$$$$$$$$@@",
"@@@$$$$$$$$$$$$$$$$$$$$$$$$$$$$$$$$$$$$$$$$$$$$@@@",
"@@@@@@@@@@@@@@@@@@@@@@@@@@@@@@@@@@@@@@@@@@@@@@@@@@"};
