/* XPM */
static char * 1_xpm[] = {
"25 25 2 1",
" 	c None",
".	c #000000",
"                         ",
"     ..........          ",
"     ..........          ",
"     ..........          ",
"          .....          ",
"          .....          ",
"          .....          ",
"          .....          ",
"          .....          ",
"          .....          ",
"          .....          ",
"          .....          ",
"          .....          ",
"          .....          ",
"          .....          ",
"          .....          ",
"          .....          ",
"          .....          ",
"          .....          ",
"          .....          ",
"          .....          ",
"          .....          ",
"    .................    ",
"    .................    ",
"                         "};
