/* XPM */
static char * global_xpm[] = {
"100 75 2 1",
" 	c None",
".	c #000000",
"                                                                                                    ",
"    .....       .....        .................        .................                             ",
"    .....       .....        .................        .................                             ",
"    .....       .....        .....                    .....                                         ",
"    .....       .....        .....                    .....                                         ",
"    .....       .....        .....                    .....                                         ",
"    .....       .....        .....                    .....                                         ",
"    .....       .....        .....                    .....                                         ",
"    .....       .....        .....                    .....                                         ",
"    .....       .....        .....                    .....                                         ",
"    .....       .....        .....                    .....                                         ",
"    .................        .................        .................                             ",
"    .................        .................        .................                             ",
"                .....                    .....        .....       .....                             ",
"                .....                    .....        .....       .....                             ",
"                .....                    .....        .....       .....                             ",
"                .....                    .....        .....       .....                             ",
"                .....                    .....        .....       .....                             ",
"                .....                    .....        .....       .....                             ",
"                .....                    .....        .....       .....                             ",
"                .....                    .....        .....       .....                             ",
"                .....                    .....        .....       .....                             ",
"                .....        .................        .................                             ",
"                .....        .................        .................                             ",
"                                                                                                    ",
"                                                                                                    ",
"                             .................        .................                             ",
"    .................        .................        .................                             ",
"    .................                    .....                    .....                             ",
"                .....                    .....                    .....                             ",
"                .....                    .....                    .....                             ",
"                .....                    .....                    .....                             ",
"                .....                    .....                    .....                             ",
"                .....                    .....                    .....                             ",
"                .....                    .....                    .....                             ",
"                .....                    .....                    .....                             ",
"    .................         ................         ................                             ",
"    .................         ................         ................                             ",
"    .....                                .....                    .....                             ",
"    .....                                .....                    .....                             ",
"    .....                                .....                    .....                             ",
"    .....                                .....                    .....                             ",
"    .....                                .....                    .....                             ",
"    .....                                .....                    .....                             ",
"    .....                                .....                    .....                             ",
"    .....                                .....                    .....                             ",
"    .....                                .....                    .....                             ",
"    .................        .................                    .....                             ",
"    .................        .................                    .....                             ",
"                                                                                                    ",
"                                                                                                    ",
"    .................         ..........              .................        .................    ",
"    .................         ..........              .................        .................    ",
"    .....       .....         ..........              .....       .....        .....       .....    ",
"    .....       .....              .....              .....       .....        .....       .....    ",
"    .....       .....              .....              .....       .....        .....       .....    ",
"    .....       .....              .....              .....       .....        .....       .....    ",
"    .....       .....              .....              .....       .....        .....       .....    ",
"    .....       .....              .....              .....       .....        .....       .....    ",
"    .....       .....              .....              .....       .....        .....       .....    ",
"    .....       .....              .....              .....       .....        .....       .....    ",
"    .....       .....              .....              .................        .................    ",
"    .....       .....              .....              .................        .................    ",
"    .....       .....              .....              .....       .....                    .....    ",
"    .....       .....              .....              .....       .....                    .....    ",
"    .....       .....              .....              .....       .....                    .....    ",
"    .....       .....              .....              .....       .....                    .....    ",
"    .....       .....              .....              .....       .....                    .....    ",
"    .....       .....              .....              .....       .....                    .....    ",
"    .....       .....              .....              .....       .....                    .....    ",
"    .....       .....              .....              .....       .....                    .....    ",
"    .....       .....              .....              .....       .....                    .....    ",
"    .................        .................        .................        .................    ",
"    .................        .................        .................        .................    ",
"                                                                                                    "};
