/* XPM */
static char * pannel_wall_xpm[] = {
"50 50 12 1",
" 	c #393939",
".	c #A3A3A3",
"+	c #666666",
"@	c #1E1D1D",
"#	c #2D2D2D",
"$	c #DEC916",
"%	c #4EA246",
"&	c #29FF13",
"*	c #27FFF9",
"=	c #2881A9",
"-	c #448D3D",
";	c #4B4B4B",
"                                                  ",
"..................................................",
"..................................................",
"..................................................",
"..................................................",
"..................................................",
"..................................................",
"..................................................",
"                                                  ",
"   ++++++++++++++++++++++++++++++++++++++++++++   ",
"  ++++++++++++++++++++++++++++++++++++++++++++++  ",
" ++                                            ++ ",
" ++  @@@@@@@@@@@@@@@@@@ ###################### ++ ",
" ++  @@@$$@@@@@@@@@@@@@ %&&&&&&&&&&&&&&&&&&&&% ++ ",
" ++  @**$$==========**@ %&-&&&&------&&&&&&&&% ++ ",
" ++  @**============**@ %&&&&&&&&&&&&&&&&&&&&% ++ ",
" ++  @**============**@ %&-&&&&------&&&&&&&&% ++ ",
" ++  @**============**@ %&&&&&&&&&&&&&&&&&&&&% ++ ",
" ++  @**============**@ %&-&&&&------&&&&&&&&% ++ ",
" ++  @**============**@ %&&&&&&&&&&&&&&&&&&&&% ++ ",
" ++  @**============**@ %&-&&&&------&&&&&&&&% ++ ",
" ++  @**============**@ %&&&&&&&&&&&&&&&&&&&&% ++ ",
" ++  @**============**@ %&&&&&&&&&&&&&&&&&&&&% ++ ",
" ++  @**============**@ %%%%%%%%%%%%%%%%%%%%%% ++ ",
" ++  @**============**@ ###################### ++ ",
" ++  @**============**@                        ++ ",
" ++  @****************@ @@@@@@@@@@@@@@@@@@@@@@ ++ ",
" ++  @****************@                        ++ ",
" ++  @@@@@@@@@@@@@@@@@@ @@@@@@@@@@@@@@@@@@@@@@ ++ ",
" ++                                            ++ ",
" ++                     @@@@@@@@@@@@@@@@@@@@@@ ++ ",
" ++                     @++++++++++++++++++++@ ++ ",
" ++                     @++++++++++++++++++++@ ++ ",
" ++                     @++++++++++++++++++++@ ++ ",
" ++                     @++++++++++++++++++++@ ++ ",
" ++                     @++++++++++++++++++++@ ++ ",
" ++                     @++++++++++++++++++++@ ++ ",
" ++                     @+@@@@@@@@@@@@@@@@@@+@ ++ ",
" ++                     @@@@@@@@@@@@@@@@@@@@@@ ++ ",
" ++                                            ++ ",
" ++  @;;;;;;;;;;;;;;;;;;;;;;;;;;;;;;;;;;;;;;@  ++ ",
" ++  @;;;;;;;;;;;;;;;;;;;;;;;;;;;;;;;;;;;;;;@  ++ ",
" ++  @;;;;;;;;;;;;;;;;;;;;;;;;;;;;;;;;;;;;;;@  ++ ",
" ++  @;;;;;;;;;;;;;;;;;;;;;;;;;;;;;;;;;;;;;;@  ++ ",
" ++  @@@@@@@@@@@@@@@@@@@@@@@@@@@@@@@@@@@@@@@@  ++ ",
" ++                                            ++ ",
" ++                                            ++ ",
"  ++++++++++++++++++++++++++++++++++++++++++++++  ",
"   ++++++++++++++++++++++++++++++++++++++++++++   ",
"                                                  "};
