/* XPM */
static char * private_door_xpm[] = {
"50 50 10 1",
" 	c #393939",
".	c #A3A3A3",
"+	c #666666",
"@	c #464444",
"#	c #343333",
"$	c #A19B9B",
"%	c #1E1E1E",
"&	c #37AAAA",
"*	c #2C8282",
"=	c #B6B3B3",
"                                                  ",
"..................................................",
"..................................................",
"..................................................",
"..................................................",
"..................................................",
"..................................................",
"..................................................",
"                                                  ",
"   ++++++++++++++++++++++++++++++++++++++++++++   ",
"  ++++++++++++++++++++++++++++++++++++++++++++++  ",
" ++++++++++++++++++++++++++++++++++++++++++++++++ ",
" ++++++++++++++++++++++++++++++++++++++++++++++++ ",
" ++++++++++++++++++++++++++++++++++++++++++++++++ ",
" ++++++++++++++++++++++++++++++++++++++++++++++++ ",
" ++++++++++++++@@@@@@@@@@@@@@@@@@@@@+++++++++++++ ",
" ++++++++++++++@@@@@@@@@@@@@@@@@@@@@+++++++++++++ ",
" ++++++++++++++@################## @+++++++++++++ ",
" ++++++++++++++@ $$$$$$$$$$$$$$$$$ @+++++++++++++ ",
" ++++++++++++++@ $$$$$$$$$$$$$$$$$ @+++++++++++++ ",
" ++++++++++++++@ $$$$$$$$$$$$$$$$$ @+++++++++++++ ",
" ++++++++++++++@ $$$$$$$$$$$$$$$$$ @+++++++++++++ ",
" ++++++++++++++@ $$%%%%%%%%%%%%%$$ @+++++++++++++ ",
" ++++++++++++++@ $$%&*********&%$$ @+++++++++++++ ",
" ++++++++++++++@ $$%&*********&%$$ @+++++++++++++ ",
" ++++++++++++++@ $$%&*********&%$$ @+++++++++++++ ",
" ++++++++++++++@ $$%&&&&&&&&&&&%$$ @+++++++++++++ ",
" ++++++++++++++@ $$%%%%%%%%%%%%%$$ @+++++++++++++ ",
" ++++++++++++++@ $$=============$$ @+++++++++++++ ",
" ++++++++++++++@ $$=%%=%%=%=%=%=$$ @+++++++++++++ ",
" ++++++++++++++@ $$=%==%==%==%==$$ @+++++++++++++ ",
" ++++++++++++++@ $$=============$$ @+++++++++++++ ",
" ++++++++++++++@ $$$$$$$$$$$$$$$$$ @+++++++++++++ ",
" ++++++++++++++@ $$$$$$$$$$$$$$$$$ @+++++++++++++ ",
" ++++++++++++++@ $$$$$$$$$$$$@@@=$ @+++++++++++++ ",
" ++++++++++++++@ $$$$$$$$$$$$$$$$$ @+++++++++++++ ",
" ++++++++++++++@ $$$$$$$$$$$$$$$$$ @+++++++++++++ ",
" ++++++++++++++@ $$$$$$$$$$$$$$$$$ @+++++++++++++ ",
" ++++++++++++++@ $$$$$$$$$$$$$$$$$ @+++++++++++++ ",
" ++++++++++++++@ $$$$$$$$$$$$$$$$$ @+++++++++++++ ",
" ++++++++++++++@ $$$$$$$$$$$$$$$$$ @+++++++++++++ ",
" ++++++++++++++@ $$$$$$$$$$$$$$$$$ @+++++++++++++ ",
" ++++++++++++++@ $$$$$$$$$$$$$$$$$ @+++++++++++++ ",
" ++++++++++++++@ $$$$$$$$$$$$$$$$$ @+++++++++++++ ",
" ++++++++++++++@ $$$$$$$$$$$$$$$$$ @+++++++++++++ ",
" ++++++++++++++@ $$$$$$$$$$$$$$$$$ @+++++++++++++ ",
" ++++++++++++++@ $$$$$$$$$$$$$$$$$ @+++++++++++++ ",
"  +++++++++++++@ $$$$$$$$$$$$$$$$$ @++++++++++++  ",
"   ++++++++++++@ $$$$$$$$$$$$$$$$$ @+++++++++++   ",
"                                                  "};
