/* XPM */
static char * wall_screen_xpm[] = {
"50 50 4 1",
" 	c #393939",
".	c #A3A3A3",
"+	c #666666",
"@	c #DEC916",
"                                                  ",
"..................................................",
"..................................................",
"..................................................",
"..................................................",
"..................................................",
"..................................................",
"..................................................",
"                                                  ",
"   ++++++++++++++++++++++++++++++++++++++++++++   ",
"  +++++@@+++@@+++@@+++@@+++@@+++@@+++@@+++@@++++  ",
" ++@@+++@@+++@@+++@@+++@@+++@@+++@@+++@@+++@@++++ ",
" +++@@+++@@+++@@+++@@+++@@+++@@+++@@+++@@+++@@+++ ",
" +                                              + ",
" +                                              + ",
" + ++++++++++++++++++++++++++++++++++++++++++++ + ",
" + ++++++++++++++++++++++++++++++++++++++++++++ + ",
" + ++++++++++++++++++++++++++++++++++++++++++++ + ",
" + ++++++++++++++++++++++++++++++++++++++++++++ + ",
" + ++++++++++++++++++++++++++++++++++++++++++++ + ",
" + ++++++++++++++++++++++++++++++++++++++++++++ + ",
" + ++++++++++++++++++++++++++++++++++++++++++++ + ",
" + ++++++++++++++++++++++++++++++++++++++++++++ + ",
" + ++++++++++++++++++++++++++++++++++++++++++++ + ",
" + ++++++++++++++++++++++++++++++++++++++++++++ + ",
" + ++++++++++++++++++++++++++++++++++++++++++++ + ",
" + ++++++++++++++++++++++++++++++++++++++++++++ + ",
" + ++++++++++++++++++++++++++++++++++++++++++++ + ",
" + ++++++++++++++++++++++++++++++++++++++++++++ + ",
" + ++++++++++++++++++++++++++++++++++++++++++++ + ",
" + ++++++++++++++++++++++++++++++++++++++++++++ + ",
" + ++++++++++++++++++++++++++++++++++++++++++++ + ",
" + ++++++++++++++++++++++++++++++++++++++++++++ + ",
" + ++++++++++++++++++++++++++++++++++++++++++++ + ",
" + ++++++++++++++++++++++++++++++++++++++++++++ + ",
" + ++++++++++++++++++++++++++++++++++++++++++++ + ",
" + ++++++++++++++++++++++++++++++++++++++++++++ + ",
" +                                              + ",
" ++++++++++++++++++++++++++++++++++++++++++++++++ ",
" +@+++@@+++@@+++@@+++@@+++@@+++@@+++@@+++@@+++@@+ ",
" +@@+++@@+++@@+++@@+++@@+++@@+++@@+++@@+++@@+++@+ ",
" ++@@+++@@+++@@+++@@+++@@+++@@+++@@+++@@+++@@++++ ",
" +++@@+++@@+++@@+++@@+++@@+++@@+++@@+++@@+++@@+++ ",
" ++++@@+++@@+++@@+++@@+++@@+++@@+++@@+++@@+++@@++ ",
" +@+++@@+++@@+++@@+++@@+++@@+++@@+++@@+++@@+++@@+ ",
" +@@+++@@+++@@+++@@+++@@+++@@+++@@+++@@+++@@+++++ ",
" ++@@+++@@+++@@+++@@+++@@+++@@+++@@+++@@+++@@++++ ",
"  ++@@+++@@+++@@+++@@+++@@+++@@+++@@+++@@+++@@++  ",
"   ++++++++++++++++++++++++++++++++++++++++++++   ",
"                                                  "};
