/* XPM */
static char * wall_screen_indoor_xpm[] = {
"50 50 13 1",
" 	c #393939",
".	c #A3A3A3",
"+	c #666666",
"@	c #4EA246",
"#	c #29FF13",
"$	c #448D3D",
"%	c #4B9E43",
"&	c #3F8438",
"*	c #313131",
"=	c #C3C3C3",
"-	c #797B79",
";	c #C6C7C6",
">	c #000000",
"                                                  ",
"..................................................",
"..................................................",
"..................................................",
"..................................................",
"..................................................",
"..................................................",
"..................................................",
"                                                  ",
"   ++++++++++++++++++++++++++++++++++++++++++++   ",
"  ++++++++++++++++++++++++++++++++++++++++++++++  ",
" ++                                            ++ ",
" ++ @########################################@ ++ ",
" ++ @###############$########################@ ++ ",
" ++ @###############$#$############%$$$$$####@ ++ ",
" ++ @##########$###$$$$$&##########%%$$$$####@ ++ ",
" ++ @##########$###$%$%$&##########%%$$$$####@ ++ ",
" ++ @########$$$$##$$$$$&##########%%%$$$####@ ++ ",
" ++ @########$%$$##$%$%$&#$$&######%%%%%$####@ ++ ",
" ++ @########$$$$##$$$$$&#$%&######%%%%%%####@ ++ ",
" ++ @########$%$$##$%$%$&#$$&################@ ++ ",
" ++ @########$$$$##$$$$$&#$%&################@ ++ ",
" ++ @#######$$%$$&#$%$%$&#$$&################@ ++ ",
" ++ @#######$$$$$&#$$$$$&#$%&&&##############@ ++ ",
" ++ @#######$$%$$&#$%$%$&#$$$$&##############@ ++ ",
" ++ @#######$$$$$&#$$$$$&#$%$%&##############@ ++ ",
" ++ @$$&##$$$$%$$&#$%$%$&#$$$$&#$$&###$$$&###@ ++ ",
" ++ @$$&##$$$$$$$&#$$$$$&#$$$$&#$$&&##$$$&###@ ++ ",
" ++ @@@@@@@@@@@@@@@@@@@@@@@@@@@@@@@@@@@@@@@@@@ ++ ",
" ++                                            ++ ",
" ++ ++                                      ++ ++ ",
" ++ ++**************************************++ ++ ",
" ++ ++*=*=*=*=*=*=*=*=*=*=*=*=*=*=*=*=*=*=**++ ++ ",
" ++ ++**************************************++ ++ ",
" ++ ++*=*=*=*=*=*=*=*=*=*=*=*=*=*=*=*=*=*=**++ ++ ",
" ++ ++**************************************++ ++ ",
" ++ ++++++++++++++++++++++++++++++++++++++++++ ++ ",
" ++ ++-----++++++++++++++++++++++++++++-----++ ++ ",
" ++ ++-;;;-++++++++++++++++++++++++++++-;;;-++ ++ ",
" ++ ++-;>;-++++++++++++++++++++++++++++-;>;-++ ++ ",
" ++ ++-;;;-++++++++++++++++++++++++++++-;;;-++ ++ ",
" ++ ++-;;;-++++++++++++++++++++++++++++-;;;-++ ++ ",
" ++ ++-;;;-++++++++++++++++++++++++++++-;;;-++ ++ ",
" ++ ++-;;;-++++++++++++++++++++++++++++-;;;-++ ++ ",
" ++ ++-;>;-++++++++++++++++++++++++++++-;>;-++ ++ ",
" ++ ++-;;;-++++++++++++++++++++++++++++-;;;-++ ++ ",
" ++                                            ++ ",
"  ++++++++++++++++++++++++++++++++++++++++++++++  ",
"   ++++++++++++++++++++++++++++++++++++++++++++   ",
"                                                  "};
