/* XPM */
static char * wall_screen_outdoor_3_xpm[] = {
"50 50 8 1",
" 	c #393939",
".	c #A3A3A3",
"+	c #666666",
"@	c #29FF13",
"#	c #448D3D",
"$	c #3F8438",
"%	c #4B9E43",
"&	c #DEC916",
"                                                  ",
"..................................................",
"..................................................",
"..................................................",
"..................................................",
"..................................................",
"..................................................",
"..................................................",
"                                                  ",
"   ++++++++++++++++++++++++++++++++++++++++++++   ",
"  ++++++++++++++++++++++++++++++++++++++++++++++  ",
" ++++++++++++++++++++++++++++++++++++++++++++++++ ",
" ++++++++++++++++++++++++++++++++++++++++++++++++ ",
" +                                              + ",
" +                                              + ",
" + @@@@@@@@@@@@@@@@@@@@@@@@@@@@@@@@@@@@@@@@@@@@ + ",
" + @@@@@@@@@@@@@@@@@@@@@@@@@@@@@@@@@@@@@@@@@@@@ + ",
" + @@@@@@@@@@@@@@@@@@@@@@@@@@@@@@@@@@@@@@@@@@@@ + ",
" + @@###$@@@@@@@@@@##########@@@@@@@@@@@@@@@@@@ + ",
" + @@%%%$@@@@@@@@@@##########@@@@@@@@@@@@@@@@@@ + ",
" + @@%%%$@@@@@@@@@@###$$$$###@@@@@@@@@@@@@@@@@@ + ",
" + @@%%%$@@@@@@@@@@###%$$$###@@@@@@@@@@@@@@@@@@ + ",
" + @@%%%$@@@@@@@@@@###%%%$###@@@@@@@@@@@@@@@@@@ + ",
" + @@%%%$@@@@@@@@@@###%%%$###@@@@@@@@@@@@@@@@@@ + ",
" + @@%%%$@@@@@@@@@@##########@@@@@@@@@@@@@@@@@@ + ",
" + @@%%%$@@@@@@@@@@##########@@@@@@@@@@@@@@@@@@ + ",
" + @@%%%$@@@@@@@@@@##########@@@@@@@@@@@@@@@@@@ + ",
" + @@%%%$@@@@@@@@@@##########@@@@@@@@@@@@@@@@@@ + ",
" + @@%%%$@@@@@@@@@@###@@@@###@@@@@@@@@@@@@@@@@@ + ",
" + @@%%%$@@@@@@@@@@###@@@@###@@@@@@@@@@@@@@@@@@ + ",
" + @@%%%$$$$$@@@@@@###@@@@###@@@@@@@@@@@@@@@@@@ + ",
" + @@%%%%%%%#@@@@@@###@@@@###@@@@@@@@@@@@@@@@@@ + ",
" + @@%%%%%%%#@@@@@@###@@@@###@@@@@@@@@@@@@@@@@@ + ",
" + @@%%%%%%%#@@@@@@###@@@@###@@@@@@@@@@@@@@@@@@ + ",
" + @@@@@@@@@@@@@@@@@@@@@@@@@@@@@@@@@@@@@@@@@@@@ + ",
" + @@@@@@@@@@@@@@@@@@@@@@@@@@@@@@@@@@@@@@@@@@@@ + ",
" + @@@@@@@@@@@@@@@@@@@@@@@@@@@@@@@@@@@@@@@@@@@@ + ",
" +                                              + ",
" ++++++++++++++++++++++++++++++++++++++++++++++++ ",
" +&+++&&+++&&+++&&+++&&+++&&+++&&+++&&+++&&+++&&+ ",
" +&&+++&&+++&&+++&&+++&&+++&&+++&&+++&&+++&&+++&+ ",
" ++&&+++&&+++&&+++&&+++&&+++&&+++&&+++&&+++&&++++ ",
" +++&&+++&&+++&&+++&&+++&&+++&&+++&&+++&&+++&&+++ ",
" ++++&&+++&&+++&&+++&&+++&&+++&&+++&&+++&&+++&&++ ",
" +&+++&&+++&&+++&&+++&&+++&&+++&&+++&&+++&&+++&&+ ",
" +&&+++&&+++&&+++&&+++&&+++&&+++&&+++&&+++&&+++++ ",
" ++&&+++&&+++&&+++&&+++&&+++&&+++&&+++&&+++&&++++ ",
"  ++&&+++&&+++&&+++&&+++&&+++&&+++&&+++&&+++&&++  ",
"   ++++++++++++++++++++++++++++++++++++++++++++   ",
"                                                  "};
