/* XPM */
static char * wall_screen_outdoor_xpm[] = {
"50 50 5 1",
" 	c #393939",
".	c #A3A3A3",
"+	c #666666",
"@	c #29FF13",
"#	c #DEC916",
"                                                  ",
"..................................................",
"..................................................",
"..................................................",
"..................................................",
"..................................................",
"..................................................",
"..................................................",
"                                                  ",
"   ++++++++++++++++++++++++++++++++++++++++++++   ",
"  ++++++++++++++++++++++++++++++++++++++++++++++  ",
" ++++++++++++++++++++++++++++++++++++++++++++++++ ",
" ++++++++++++++++++++++++++++++++++++++++++++++++ ",
" +                                              + ",
" +                                              + ",
" + @@@@@@@@@@@@@@@@@@@@@@@@@@@@@@@@@@@@@@@@@@@@ + ",
" + @@@@@@@@@@@@@@@@@@@@@@@@@@@@@@@@@@@@@@@@@@@@ + ",
" + @@@@@@@@@@@@@@@@@@@@@@@@@@@@@@@@@@@@@@@@@@@@ + ",
" + @@@@@@@@@@@@@@@@@@@@@@@@@@@@@@@@@@@@@@@@@@@@ + ",
" + @@@@@@@@@@@@@@@@@@@@@@@@@@@@@@@@@@@@@@@@@@@@ + ",
" + @@@@@@@@@@@@@@@@@@@@@@@@@@@@@@@@@@@@@@@@@@@@ + ",
" + @@@@@@@@@@@@@@@@@@@@@@@@@@@@@@@@@@@@@@@@@@@@ + ",
" + @@@@@@@@@@@@@@@@@@@@@@@@@@@@@@@@@@@@@@@@@@@@ + ",
" + @@@@@@@@@@@@@@@@@@@@@@@@@@@@@@@@@@@@@@@@@@@@ + ",
" + @@@@@@@@@@@@@@@@@@@@@@@@@@@@@@@@@@@@@@@@@@@@ + ",
" + @@@@@@@@@@@@@@@@@@@@@@@@@@@@@@@@@@@@@@@@@@@@ + ",
" + @@@@@@@@@@@@@@@@@@@@@@@@@@@@@@@@@@@@@@@@@@@@ + ",
" + @@@@@@@@@@@@@@@@@@@@@@@@@@@@@@@@@@@@@@@@@@@@ + ",
" + @@@@@@@@@@@@@@@@@@@@@@@@@@@@@@@@@@@@@@@@@@@@ + ",
" + @@@@@@@@@@@@@@@@@@@@@@@@@@@@@@@@@@@@@@@@@@@@ + ",
" + @@@@@@@@@@@@@@@@@@@@@@@@@@@@@@@@@@@@@@@@@@@@ + ",
" + @@@@@@@@@@@@@@@@@@@@@@@@@@@@@@@@@@@@@@@@@@@@ + ",
" + @@@@@@@@@@@@@@@@@@@@@@@@@@@@@@@@@@@@@@@@@@@@ + ",
" + @@@@@@@@@@@@@@@@@@@@@@@@@@@@@@@@@@@@@@@@@@@@ + ",
" + @@@@@@@@@@@@@@@@@@@@@@@@@@@@@@@@@@@@@@@@@@@@ + ",
" + @@@@@@@@@@@@@@@@@@@@@@@@@@@@@@@@@@@@@@@@@@@@ + ",
" + @@@@@@@@@@@@@@@@@@@@@@@@@@@@@@@@@@@@@@@@@@@@ + ",
" +                                              + ",
" ++++++++++++++++++++++++++++++++++++++++++++++++ ",
" +#+++##+++##+++##+++##+++##+++##+++##+++##+++##+ ",
" +##+++##+++##+++##+++##+++##+++##+++##+++##+++#+ ",
" ++##+++##+++##+++##+++##+++##+++##+++##+++##++++ ",
" +++##+++##+++##+++##+++##+++##+++##+++##+++##+++ ",
" ++++##+++##+++##+++##+++##+++##+++##+++##+++##++ ",
" +#+++##+++##+++##+++##+++##+++##+++##+++##+++##+ ",
" +##+++##+++##+++##+++##+++##+++##+++##+++##+++++ ",
" ++##+++##+++##+++##+++##+++##+++##+++##+++##++++ ",
"  ++##+++##+++##+++##+++##+++##+++##+++##+++##++  ",
"   ++++++++++++++++++++++++++++++++++++++++++++   ",
"                                                  "};
