/* XPM */
static char * right_perso_1_xpm[] = {
"39 55 59 1",
" 	c None",
".	c #000000",
"+	c #85837F",
"@	c #A9A7A5",
"#	c #9C9A97",
"$	c #A07654",
"%	c #BD7D58",
"&	c #F8D098",
"*	c #F1C791",
"=	c #EFECEC",
"-	c #D4CECE",
";	c #C7C5C2",
">	c #DFDCD7",
",	c #BDBCBA",
"'	c #E1DED9",
")	c #DBD9D5",
"!	c #CECDCB",
"~	c #D8D6D3",
"{	c #D2D1CF",
"]	c #CDCCCA",
"^	c #F2C791",
"/	c #CFCECC",
"(	c #BBBAB8",
"_	c #D7D4D0",
":	c #CAC9C8",
"<	c #DEA275",
"[	c #B8B7B6",
"}	c #C9C7C5",
"|	c #BEBDBC",
"1	c #965B40",
"2	c #BDBCBB",
"3	c #A7A6A5",
"4	c #C9825B",
"5	c #B6B5B4",
"6	c #21201F",
"7	c #7E7E7D",
"8	c #0F0D08",
"9	c #474646",
"0	c #484847",
"a	c #484747",
"b	c #484848",
"c	c #464646",
"d	c #525252",
"e	c #3B3B3B",
"f	c #393939",
"g	c #515151",
"h	c #333333",
"i	c #4B4B4B",
"j	c #393837",
"k	c #3F3E3E",
"l	c #424141",
"m	c #474747",
"n	c #373636",
"o	c #646464",
"p	c #4A4A4A",
"q	c #676767",
"r	c #636363",
"s	c #545454",
"t	c #5C5C5C",
"                                       ",
"                                       ",
"                                       ",
"                                       ",
"                                       ",
"              .........                ",
"             ..+@#####...              ",
"            ..@#########..             ",
"            .#@#+########.             ",
"           ..@##########@..            ",
"          ..##############.            ",
"         ..###########+++#.            ",
"         .@##+#####++$$%$%..           ",
"         ..@#####++$$$&**&%.           ",
"          .######$$$****&...           ",
"          .@####+.........=.           ",
"          .@@##+..*******.-.           ",
"          .@###+%*******&.-.           ",
"          .####+%%%*****&.-.           ",
"          .@####+$&**&**&...           ",
"          .#####@$%*&&**&&.            ",
"          .#######**&**&&&.            ",
"          .#####+#$*&*&*&.             ",
"           .@###+%%*****..             ",
"           ...###%*****..              ",
"             ...;;......               ",
"              .>..>>,>>.               ",
"              .'.>>>,>'.               ",
"              .'.>>>.>'.               ",
"              .'.>>>.>'.               ",
"              .).>>>.!~.               ",
"              .{.>>>.]{.               ",
"              .{.>>>.]{.               ",
"              .{.>>>.]{.               ",
"              .{.^^^.,>.               ",
"              ./.^^^.(_.               ",
"              .:.^<<.[}.               ",
"              .|.<<1.[2.               ",
"              .3.411.53.               ",
"               6.....78.               ",
"               .90aabc.                ",
"               .ddbedd.                ",
"               .ddbfdd.                ",
"               .ddbfdd.                ",
"               .ddbfdg.                ",
"               .ddbhij.                ",
"               .klmn....               ",
"               .okkp.qqq.              ",
"               .rkksttkk.              ",
"               ..........              ",
"                                       ",
"                                       ",
"                                       ",
"                                       ",
"                                       "};
