/* XPM */
static char * right_perso_1_xpm[] = {
"39 55 52 1",
" 	c None",
".	c #000000",
"+	c #365B35",
"@	c #437742",
"#	c #1C2B1C",
"$	c #2A422A",
"%	c #3A593A",
"&	c #FFFFFF",
"*	c #C7C5C2",
"=	c #DFDCD7",
"-	c #BDBCBA",
";	c #E1DED9",
">	c #DBD9D5",
",	c #CECDCB",
"'	c #D8D6D3",
")	c #D2D1CF",
"!	c #CDCCCA",
"~	c #CFCECC",
"{	c #BBBAB8",
"]	c #D7D4D0",
"^	c #CAC9C8",
"/	c #B8B7B6",
"(	c #C9C7C5",
"_	c #BEBDBC",
":	c #BDBCBB",
"<	c #A7A6A5",
"[	c #B6B5B4",
"}	c #21201F",
"|	c #7E7E7D",
"1	c #0F0D08",
"2	c #474646",
"3	c #484847",
"4	c #484747",
"5	c #484848",
"6	c #464646",
"7	c #525252",
"8	c #3B3B3B",
"9	c #393939",
"0	c #515151",
"a	c #333333",
"b	c #4B4B4B",
"c	c #393837",
"d	c #3F3E3E",
"e	c #424141",
"f	c #474747",
"g	c #373636",
"h	c #646464",
"i	c #4A4A4A",
"j	c #676767",
"k	c #636363",
"l	c #545454",
"m	c #5C5C5C",
"                                       ",
"                                       ",
"                                       ",
"             ..........                ",
"            ..+@@@@@@+...              ",
"           ..+@@@@@@@@++..             ",
"          ..+++@@@@@@@@++..            ",
"          .++++@@@@@@+++++.            ",
"          .+++++++++++++++.            ",
"          .#+++++++++++++#.            ",
"          .$#+++++++++++#$..           ",
"          .$$###########$$$.           ",
"          .$$$$$$$$$$$$$$$$.           ",
"          .$$$$$$$$$$$$$$$$.           ",
"          .%$$$$$$$$$$$$$$%.           ",
"          .%%%%%%%%%%%%%%%%.           ",
"          .%%%%%%%%%%%%&&&%.           ",
"          .%%%%%%%%%%%%&&&%.           ",
"          .%%%%%%%%%%%%%%%%.           ",
"          .@%%%%%%%%%%%%%@..           ",
"          .@@@@@@@@@@@@@@@.            ",
"          ..@@@@@@@@@@@@...            ",
"           .@@@@@@@@@@@@@..            ",
"           .@@@@@@@@@@@@..             ",
"           ...@@@@@@@@@..              ",
"             ...**......               ",
"              .=..==-==.               ",
"              .;.===-=;.               ",
"              .;.===.=;.               ",
"              .;.===.=;.               ",
"              .>.===.,'.               ",
"              .).===.!).               ",
"              .).===.!).               ",
"              .).===.!).               ",
"              .).+++.-=.               ",
"              .~.+++.{].               ",
"              .^.+++./(.               ",
"              ._.+++./:.               ",
"              .<.+++.[<.               ",
"               }.....|1.               ",
"               .234456.                ",
"               .775877.                ",
"               .775977.                ",
"               .775977.                ",
"               .775970.                ",
"               .775abc.                ",
"               .defg....               ",
"               .hddi.jjj.              ",
"               .kddlmmdd.              ",
"               ..........              ",
"                                       ",
"                                       ",
"                                       ",
"                                       ",
"                                       "};
