/* XPM */
static char * capsule_2_xpm[] = {
"50 100 13 1",
" 	c None",
".	c #0C0B0B",
"+	c #888988",
"@	c #000000",
"#	c #343030",
"$	c #4AF54A",
"%	c #4D5D4D",
"&	c #414F41",
"*	c #404F40",
"=	c #FFFFFF",
"-	c #626262",
";	c #10DB10",
">	c #DB1010",
"                                                  ",
"                                                  ",
"                                                  ",
"                                                  ",
"                                                  ",
"                                                  ",
"                                                  ",
"                                                  ",
"                                                  ",
"                                                  ",
"                                                  ",
"                                                  ",
"                                                  ",
"                                                  ",
"                                                  ",
"                                                  ",
"                                                  ",
"                                                  ",
"                                                  ",
"                                                  ",
"                                                  ",
"                                                  ",
"                                                  ",
"                                                  ",
"                   ............                   ",
"               ......+++++++++.....               ",
"             ....+++++++++++++++.....             ",
"            ...++++++++++++++++++++...            ",
"           ...++++++++++++++++++++++..@           ",
"           .#..@+++++++++++++++++++@@#@           ",
"           .##@@@@@@++++++++++++@@@###@           ",
"           @.######@@@@@@@@@@@@@@###@@@@          ",
"           @@@@@@@################@@@@@           ",
"            @@@@@@@@@@@@@@@@@@@@@@@@@@            ",
"            @$$@@@@@@@@@@@@@@@@@@@@$$@            ",
"            @$$$$$$@@@@@@@@@@@@$$$$$$@            ",
"            @$$$$$$$$$$$$$$$$$$$$$$$$@            ",
"            @$$$$$$$$$$$$$$$$$$$$$$$$@            ",
"            @$$$$$$$$$$$$$$$$$$$$$$$$@            ",
"            @$$$$$$$$$$$$$$$$$$$$$$$$@            ",
"            @$$$$$$$$$$$$$$$$$$$$$$$$@            ",
"            @$$$$$$$$$$$$$$$$$$$$$$$$@            ",
"            @$$$$$$$$$%%%%%$$$$$$$$$$@            ",
"            @$$$$$$$$$%%%%%$$$$$$$$$$@            ",
"            @$$$$$$$$$%%%%%$$$$$$$$$$@            ",
"            @$$$$$$$$$%%%%%$$$$$$$$$$@            ",
"            @$$$$$$$$$%%%%%$$$$$$$$$$@            ",
"            @$$$$$%%%%%%%%%%%%%%$$$$$@            ",
"            @$$$$$%%%%%%%%%%%%%%$$$$$@            ",
"            @$$$$$$$$%%%%%%%$$$$$$$$$@            ",
"            @$$$$$$$$%%%%%%%$$$$$$$$$@            ",
"            @$$$$$$$$%%%%%%%$$$$$$$$$@            ",
"            @$$$$$$$$$%%%%%%$$$$$$$$$@            ",
"            @$$$$$$$$$%%%%%%$$$$$$$$$@            ",
"            @$$$$$$$$$%%%%%%$$$$$$$$$@            ",
"            @$$$$$$$$$%%$$%%$$$$$$$$$@            ",
"            @$$$$$$$$$%%$$%%$$$$$$$$$@            ",
"            @$$$$$$$$$%%$$%%$$$$$$$$$@            ",
"            @$$$$$$$$$%%$$%%$$$$$$$$$@            ",
"            @$$$$$$$$$$$$$$$$$$$$$$$$@            ",
"            @$$$$$$$$$$$$$$$$$$$$$$$$@            ",
"            @$$$$$$$$$$$$$$$$$$$$$$$$@            ",
"            @$$$$$$$$$$$$$$$$$$$$$$$$@            ",
"            @$$$$$$$$$$$$$$$$$$$$$$$$@            ",
"            @$$$$$$$$$$$$$$$$$$$$$$$$@            ",
"            @$$$$$$$$$$$$$$$$$$$$$$$$@            ",
"            @$$$$$$$$$$$$$$$$$$$$$$$$@            ",
"            @$$$$$$&&&&&&&&&&&&**$$$$@            ",
"            @$*&&&&&%%%%%%%%%%%%&&$$$@            ",
"            @&&&%%%%%%%%%%%%%%%%%&&&&@            ",
"           @@&%%%%%%%%=====%%%%%%%%%&@@           ",
"          @@@%%%%%%%%=%%%%%=%%%%%%%%%@@@          ",
"          @@@@%%%%%%%%=====%%%%%%%%%%@@@          ",
"          @#@@@@%%%%%%%%%%%%%%%%%%@@@@#@          ",
"          @-###@@@@@%%%%%%%%%%@@@@@####@          ",
"          @-#######@@@@@@@@@@@@#######;@          ",
"         @@-########################>##@@         ",
"        @@@#########----------#########@@@        ",
"           @##@#####----------########@           ",
"            @@@#####----------#@###@@@            ",
"             @ @@@#############@@@@  @            ",
"                  @@@@@@@@@@@@@ @                 ",
"                    @@@@@@@@@                     ",
"                                                  ",
"                                                  ",
"                                                  ",
"                                                  ",
"                                                  ",
"                                                  ",
"                                                  ",
"                                                  ",
"                                                  ",
"                                                  ",
"                                                  ",
"                                                  ",
"                                                  ",
"                                                  ",
"                                                  ",
"                                                  ",
"                                                  "};
