/* XPM */
static char * left_perso_2_xpm[] = {
"39 55 59 1",
" 	c None",
".	c #000000",
"+	c #9C9A97",
"@	c #A9A7A5",
"#	c #85837F",
"$	c #BD7D58",
"%	c #A07654",
"&	c #F8D098",
"*	c #F1C791",
"=	c #EFECEC",
"-	c #D4CECE",
";	c #C7C5C2",
">	c #E1DED9",
",	c #DFDCD7",
"'	c #BDBCBA",
")	c #D8D6D3",
"!	c #CECDCB",
"~	c #DBD9D5",
"{	c #D2D1CF",
"]	c #CDCCCA",
"^	c #F2C791",
"/	c #D7D4D0",
"(	c #BBBAB8",
"_	c #CFCECC",
":	c #C9C7C5",
"<	c #B8B7B6",
"[	c #DEA275",
"}	c #CAC9C8",
"|	c #BDBCBB",
"1	c #965B40",
"2	c #BEBDBC",
"3	c #A7A6A5",
"4	c #B6B5B4",
"5	c #C9825B",
"6	c #0F0D08",
"7	c #7E7E7D",
"8	c #21201F",
"9	c #464646",
"0	c #484848",
"a	c #484747",
"b	c #484847",
"c	c #474646",
"d	c #525252",
"e	c #3B3B3B",
"f	c #393939",
"g	c #515151",
"h	c #393837",
"i	c #4B4B4B",
"j	c #333333",
"k	c #373636",
"l	c #474747",
"m	c #424141",
"n	c #3F3E3E",
"o	c #676767",
"p	c #4A4A4A",
"q	c #646464",
"r	c #5C5C5C",
"s	c #545454",
"t	c #636363",
"                                       ",
"                                       ",
"                                       ",
"                                       ",
"                                       ",
"                                       ",
"                .........              ",
"              ...+++++@#..             ",
"             ..+++++++++@..            ",
"             .++++++++#+@+.            ",
"            ..@++++++++++@..           ",
"            .++++++++++++++..          ",
"            .+###+++++++++++..         ",
"           ..$%$%%##+++++#++@.         ",
"           .$&**&%%%##+++++@..         ",
"           ...&****%%%++++++.          ",
"           .=.........#++++@.          ",
"           .-.*******..#++@@.          ",
"           .-.&*******$#+++@.          ",
"           .-.&*****$$$#++++.          ",
"           ...&**&**&%#++++@.          ",
"            .&&**&&*$%@+++++.          ",
"            .&&&**&**+++++++.          ",
"             .&*&*&*%+#+++++.          ",
"             ..*****$$#+++@.           ",
"              ..*****$+++...           ",
"               ......;;...             ",
"               .>,',,,.>.              ",
"               .>,.,,,.>.              ",
"               .>,.,,,.>.              ",
"               .)!.,,,.~.              ",
"               .{].,,,.{.              ",
"               .{].,,,.{.              ",
"               .{].,,,.{.              ",
"               .,'.^^^.{.              ",
"               ./(.^^^._.              ",
"               .:<.[[^.}.              ",
"               .|<.1[[.2.              ",
"               .34.115.3.              ",
"               .67.....8               ",
"                .90aabc.               ",
"                .dde0dd.               ",
"                .ddf0dd.               ",
"                .ddf0dd.               ",
"                .gdf0dd.               ",
"                .hij0dd.               ",
"               ....klmn.               ",
"              .ooo.pnnq.               ",
"              .nnrrsnnt.               ",
"              ..........               ",
"                                       ",
"                                       ",
"                                       ",
"                                       ",
"                                       "};
