/* XPM */
static char * back_perso_2_xpm[] = {
"39 55 170 2",
"  	c None",
". 	c #000000",
"+ 	c #010101",
"@ 	c #9B9996",
"# 	c #9C9A97",
"$ 	c #8E8880",
"% 	c #A1A09D",
"& 	c #A3A19E",
"* 	c #85837F",
"= 	c #ADA398",
"- 	c #9F9C99",
"; 	c #999794",
"> 	c #9D9B97",
", 	c #9E9C99",
"' 	c #9A9895",
") 	c #7B7976",
"! 	c #A9A7A3",
"~ 	c #ABA9A6",
"{ 	c #D6D3CE",
"] 	c #D7D5D1",
"^ 	c #BDBCBB",
"/ 	c #BDBCBA",
"( 	c #BAB9B8",
"_ 	c #BFBEBC",
": 	c #DBD8D3",
"< 	c #E1DED9",
"[ 	c #BCBAB5",
"} 	c #DFDCD7",
"| 	c #DBD9D4",
"1 	c #D6D3CF",
"2 	c #DAD7D2",
"3 	c #DEDBD6",
"4 	c #676663",
"5 	c #E0DDD8",
"6 	c #8D8B88",
"7 	c #D1CEC9",
"8 	c #666562",
"9 	c #8C8A87",
"0 	c #DDDAD5",
"a 	c #787775",
"b 	c #DBD9D5",
"c 	c #D4D3D1",
"d 	c #D8D6D3",
"e 	c #989692",
"f 	c #D2D0CB",
"g 	c #DDDAD6",
"h 	c #D4D3D0",
"i 	c #D3D2D0",
"j 	c #D2D1CF",
"k 	c #BAB8B4",
"l 	c #DEDCD8",
"m 	c #D7D6D3",
"n 	c #D4D4D2",
"o 	c #D2D2D0",
"p 	c #DAD9D5",
"q 	c #CBAE86",
"r 	c #F4D2A5",
"s 	c #F2D1A3",
"t 	c #E1B590",
"u 	c #DBD6D2",
"v 	c #DCD9D3",
"w 	c #F2D0A4",
"x 	c #F3D1A4",
"y 	c #CEAC7B",
"z 	c #F8CF98",
"A 	c #F2C791",
"B 	c #E1A97A",
"C 	c #D2CFCC",
"D 	c #D2CDC7",
"E 	c #F6CE97",
"F 	c #F5CB94",
"G 	c #F8D098",
"H 	c #CFAD7C",
"I 	c #F6CD96",
"J 	c #C9825B",
"K 	c #C57F59",
"L 	c #D1CECB",
"M 	c #CFCECC",
"N 	c #E3AD7D",
"O 	c #E4AE7E",
"P 	c #F9D299",
"Q 	c #B8855C",
"R 	c #DEA275",
"S 	c #C17D58",
"T 	c #965B40",
"U 	c #D0CECB",
"V 	c #CAC9C8",
"W 	c #C9C7C5",
"X 	c #A26346",
"Y 	c #C28861",
"Z 	c #DEA476",
"` 	c #A76945",
" .	c #965C41",
"..	c #8C543B",
"+.	c #854E37",
"@.	c #B7B5B4",
"#.	c #BEBDBC",
"$.	c #834C35",
"%.	c #AA6C4C",
"&.	c #CB845D",
"*.	c #424241",
"=.	c #454342",
"-.	c #A7A6A5",
";.	c #B6B5B4",
">.	c #6C6B6A",
",.	c #21201E",
"'.	c #818181",
").	c #3A3939",
"!.	c #21201F",
"~.	c #71706F",
"{.	c #454444",
"].	c #51504B",
"^.	c #56564C",
"/.	c #7E7E7D",
"(.	c #0F0D08",
"_.	c #3B3A39",
":.	c #404040",
"<.	c #515151",
"[.	c #4F4F4F",
"}.	c #474646",
"|.	c #484847",
"1.	c #484747",
"2.	c #484848",
"3.	c #464646",
"4.	c #4C4C4C",
"5.	c #535353",
"6.	c #434343",
"7.	c #808080",
"8.	c #505050",
"9.	c #525252",
"0.	c #3B3B3B",
"a.	c #707070",
"b.	c #393939",
"c.	c #454545",
"d.	c #424242",
"e.	c #4B4B4B",
"f.	c #333333",
"g.	c #393837",
"h.	c #383736",
"i.	c #373635",
"j.	c #343434",
"k.	c #444443",
"l.	c #3F3E3E",
"m.	c #424141",
"n.	c #474747",
"o.	c #373636",
"p.	c #50504F",
"q.	c #767675",
"r.	c #6F6F6F",
"s.	c #777777",
"t.	c #6E6E6E",
"u.	c #5B5B5B",
"v.	c #646363",
"w.	c #646463",
"x.	c #646464",
"y.	c #4A4A4A",
"z.	c #696969",
"A.	c #676767",
"B.	c #5E5E5E",
"C.	c #727272",
"D.	c #757575",
"E.	c #737373",
"F.	c #626262",
"G.	c #636363",
"H.	c #545454",
"I.	c #5C5C5C",
"J.	c #5D5D5D",
"K.	c #747474",
"L.	c #373737",
"M.	c #5F5F5F",
"                                                                              ",
"                                                                              ",
"                                                                              ",
"                                                                              ",
"                        . . . + + + + + + + + + +                             ",
"                      . . @ # @ $ $ $ # # % $ # + + +                         ",
"                    . . & # * * * = = = # # # # - # . .                       ",
"                  . . ; # = * # # # # # # # # # # # $ .                       ",
"                  . # # * = # # # # # # # # # # # # # .                       ",
"                  . # # # # # # # # # # # # # # # # # .                       ",
"                  . # # # # # # # # # # # # # # # # $ .                       ",
"                  . # = # # # # # # # # # # # # # # > . .                     ",
"                  . # = # # # # # # # # # # # # # # , @ .                     ",
"                  . # $ # # # # # # # # # # # # # # $ # .                     ",
"                  . # $ # # # # # # # # # # # # # # # $ .                     ",
"                  . # $ # # # # # # # # # # # # # # = $ .                     ",
"                  . # = # # # # # # # # # # # # # # # = .                     ",
"                  . ' = # # # # # # # # # # # # # # # * .                     ",
"                  . # # * # # # # # # # # # # # # # # . .                     ",
"                  . # # # # # # # # # # # # # # # # # .                       ",
"                  . * # # # # # # # # # # # # # # # # .                       ",
"                    . # ) # # # # # # # # # # # # # # .                       ",
"                  . . + ) # # # # # # # # # # # # ) ) .                       ",
"                  . ! ~ ) ) # # # # # # # # # ) # * . .                       ",
"                . . { ] ^ / ( ) ) ) ) ) ) # # # _ : < . .                     ",
"                . [ } } } } } | 1 } } } } } } } } } } } .                     ",
"                . [ } } } } 2 } } } } } } 2 } : 3 } } } .                     ",
"                . [ } } } 3 4 < 5 } } } } } < 6 7 } } } .                     ",
"                . [ } } } 3 8 < 5 } } } } } < 9 7 } } } .                     ",
"                . [ } } } 3 8 < 5 } } } } } < 9 7 } } } .                     ",
"                . [ } } } 0 a b c } } } } } d e f } } } .                     ",
"                . [ } } g h i j i } } } } } } d b } } } .                     ",
"                . k l m n o j j } } } } } } } j j m p l .                     ",
"                . q r s t } u j } } } } } } } j v w x r .                     ",
"                . y z A B } C j } } } } } } } } D E F G .                     ",
"                . H I J K . L M } } } } } } } < . N O P .                     ",
"                . Q R S T . U V } } } } } } W < . X Y Z .                     ",
"                . `  ...+.. @.#.} } } } } } ^ C . $.%.&..                     ",
"                . . . . . *.=.-.;.} } } } ;.-.>.,.. . . .                     ",
"                        . '.).!.~.{.].^.)./.(._.:..                           ",
"                        . '.<.[.}.|.1.1.2.3.4.5.6..                           ",
"                        . 7.8.9.9.9.2.0.9.9.9.5.6..                           ",
"                        . a.<.9.9.9.2.b.9.9.9.5.6..                           ",
"                        . 6.9.9.9.9.2.b.9.9.9.5.6..                           ",
"                        . c.9.9.9.9.2.b.9.<.<.9.d..                           ",
"                        . e.9.9.9.9.2.f.e.g.h.h.i..                           ",
"                        j.k.l.l.l.m.n.o.p.q.r.r.s.t.                          ",
"                      . ,.u.v.w.x.9.n.y.z.A.B.B.A.s.. .                       ",
"                    . :.C.D.E.F.G.9.8.H.I.I.I.I.J.E.K..                       ",
"                    . . . . . . . . L.M.. . . . . . . .                       ",
"                                                                              ",
"                                                                              ",
"                                                                              ",
"                                                                              ",
"                                                                              "};
