/* XPM */
static char * back_perso_1_xpm[] = {
"39 55 176 2",
"  	c None",
". 	c #000000",
"+ 	c #010101",
"@ 	c #9B9996",
"# 	c #9C9A97",
"$ 	c #8E8880",
"% 	c #A1A09D",
"& 	c #A3A19E",
"* 	c #85837F",
"= 	c #ADA398",
"- 	c #9F9C99",
"; 	c #999794",
"> 	c #9D9B97",
", 	c #9E9C99",
"' 	c #9A9895",
") 	c #7B7976",
"! 	c #A9A7A3",
"~ 	c #ABA9A6",
"{ 	c #D6D3CE",
"] 	c #D7D5D1",
"^ 	c #BDBCBB",
"/ 	c #BDBCBA",
"( 	c #BAB9B8",
"_ 	c #BFBEBC",
": 	c #DBD8D3",
"< 	c #E1DED9",
"[ 	c #BEBBB7",
"} 	c #DFDCD7",
"| 	c #DDDAD5",
"1 	c #C5C4C1",
"2 	c #BCBBBA",
"3 	c #C7C5C2",
"4 	c #CBC9C6",
"5 	c #D8D6D1",
"6 	c #E0DDD8",
"7 	c #BCBAB5",
"8 	c #DBD9D4",
"9 	c #D6D3CF",
"0 	c #DAD7D2",
"a 	c #DEDBD6",
"b 	c #676663",
"c 	c #8D8B88",
"d 	c #D1CEC9",
"e 	c #666562",
"f 	c #8C8A87",
"g 	c #787775",
"h 	c #DBD9D5",
"i 	c #D4D3D1",
"j 	c #D8D6D3",
"k 	c #989692",
"l 	c #D2D0CB",
"m 	c #DDDAD6",
"n 	c #D4D3D0",
"o 	c #D3D2D0",
"p 	c #D2D1CF",
"q 	c #BAB8B4",
"r 	c #DEDCD8",
"s 	c #D7D6D3",
"t 	c #D4D4D2",
"u 	c #D2D2D0",
"v 	c #DAD9D5",
"w 	c #CBAE86",
"x 	c #F4D2A5",
"y 	c #F2D1A3",
"z 	c #E1B590",
"A 	c #DBD6D2",
"B 	c #DCD9D3",
"C 	c #F2D0A4",
"D 	c #F3D1A4",
"E 	c #CEAC7B",
"F 	c #F8CF98",
"G 	c #F2C791",
"H 	c #E1A97A",
"I 	c #D2CFCC",
"J 	c #D2CDC7",
"K 	c #F6CE97",
"L 	c #F5CB94",
"M 	c #F8D098",
"N 	c #CFAD7C",
"O 	c #F6CD96",
"P 	c #C9825B",
"Q 	c #C57F59",
"R 	c #D1CECB",
"S 	c #CFCECC",
"T 	c #E3AD7D",
"U 	c #E4AE7E",
"V 	c #F9D299",
"W 	c #B8855C",
"X 	c #DEA275",
"Y 	c #C17D58",
"Z 	c #965B40",
"` 	c #D0CECB",
" .	c #CAC9C8",
"..	c #C9C7C5",
"+.	c #A26346",
"@.	c #C28861",
"#.	c #DEA476",
"$.	c #A76945",
"%.	c #965C41",
"&.	c #8C543B",
"*.	c #854E37",
"=.	c #B7B5B4",
"-.	c #BEBDBC",
";.	c #834C35",
">.	c #AA6C4C",
",.	c #CB845D",
"'.	c #424241",
").	c #454342",
"!.	c #A7A6A5",
"~.	c #B6B5B4",
"{.	c #6C6B6A",
"].	c #21201E",
"^.	c #818181",
"/.	c #3A3939",
"(.	c #21201F",
"_.	c #71706F",
":.	c #454444",
"<.	c #51504B",
"[.	c #56564C",
"}.	c #7E7E7D",
"|.	c #0F0D08",
"1.	c #3B3A39",
"2.	c #404040",
"3.	c #515151",
"4.	c #4F4F4F",
"5.	c #474646",
"6.	c #484847",
"7.	c #484747",
"8.	c #484848",
"9.	c #464646",
"0.	c #4C4C4C",
"a.	c #535353",
"b.	c #434343",
"c.	c #808080",
"d.	c #505050",
"e.	c #525252",
"f.	c #3B3B3B",
"g.	c #707070",
"h.	c #393939",
"i.	c #454545",
"j.	c #424242",
"k.	c #4B4B4B",
"l.	c #333333",
"m.	c #393837",
"n.	c #383736",
"o.	c #373635",
"p.	c #343434",
"q.	c #444443",
"r.	c #3F3E3E",
"s.	c #424141",
"t.	c #474747",
"u.	c #373636",
"v.	c #50504F",
"w.	c #767675",
"x.	c #6F6F6F",
"y.	c #777777",
"z.	c #6E6E6E",
"A.	c #5B5B5B",
"B.	c #646363",
"C.	c #646463",
"D.	c #646464",
"E.	c #4A4A4A",
"F.	c #696969",
"G.	c #676767",
"H.	c #5E5E5E",
"I.	c #727272",
"J.	c #757575",
"K.	c #737373",
"L.	c #626262",
"M.	c #636363",
"N.	c #545454",
"O.	c #5C5C5C",
"P.	c #5D5D5D",
"Q.	c #747474",
"R.	c #373737",
"S.	c #5F5F5F",
"                                                                              ",
"                                                                              ",
"                                                                              ",
"                        . . . + + + + + + + + + +                             ",
"                      . . @ # @ $ $ $ # # % $ # + + +                         ",
"                    . . & # * * * = = = # # # # - # . .                       ",
"                  . . ; # = * # # # # # # # # # # # $ .                       ",
"                  . # # * = # # # # # # # # # # # # # .                       ",
"                  . # # # # # # # # # # # # # # # # # .                       ",
"                  . # # # # # # # # # # # # # # # # $ .                       ",
"                  . # = # # # # # # # # # # # # # # > . .                     ",
"                  . # = # # # # # # # # # # # # # # , @ .                     ",
"                  . # $ # # # # # # # # # # # # # # $ # .                     ",
"                  . # $ # # # # # # # # # # # # # # # $ .                     ",
"                  . # $ # # # # # # # # # # # # # # = $ .                     ",
"                  . # = # # # # # # # # # # # # # # # = .                     ",
"                  . ' = # # # # # # # # # # # # # # # * .                     ",
"                  . # # * # # # # # # # # # # # # # # . .                     ",
"                  . # # # # # # # # # # # # # # # # # .                       ",
"                  . * # # # # # # # # # # # # # # # # .                       ",
"                    + # ) # # # # # # # # # # # # # # .                       ",
"                  + + + ) # # # # # # # # # # # # ) ) .                       ",
"                  . ! ~ ) ) # # # # # # # # # ) # * . .                       ",
"                . . { ] ^ / ( ) ) ) ) ) ) # # # _ : < . .                     ",
"                . [ } } } } | 1 2 / / / / 3 4 5 } } } 6 .                     ",
"                . 7 } } } } } 8 9 } } } } } } } } } } } .                     ",
"                . 7 } } } } 0 } } } } } } 0 } : a } } } .                     ",
"                . 7 } } } a b < 6 } } } } } < c d } } } .                     ",
"                . 7 } } } a e < 6 } } } } } < f d } } } .                     ",
"                . 7 } } } a e < 6 } } } } } < f d } } } .                     ",
"                . 7 } } } | g h i } } } } } j k l } } } .                     ",
"                . 7 } } m n o p o } } } } } } j h } } } .                     ",
"                . q r s t u p p } } } } } } } p p s v r .                     ",
"                . w x y z } A p } } } } } } } p B C D x .                     ",
"                . E F G H } I p } } } } } } } } J K L M .                     ",
"                . N O P Q . R S } } } } } } } < . T U V .                     ",
"                . W X Y Z . `  .} } } } } } ..< . +.@.#..                     ",
"                . $.%.&.*.. =.-.} } } } } } ^ I . ;.>.,..                     ",
"                . . . . . '.).!.~.} } } } ~.!.{.].. . . .                     ",
"                        . ^./.(._.:.<.[./.}.|.1.2..                           ",
"                        . ^.3.4.5.6.7.7.8.9.0.a.b..                           ",
"                        . c.d.e.e.e.8.f.e.e.e.a.b..                           ",
"                        . g.3.e.e.e.8.h.e.e.e.a.b..                           ",
"                        . b.e.e.e.e.8.h.e.e.e.a.b..                           ",
"                        . i.e.e.e.e.8.h.e.3.3.e.j..                           ",
"                        . k.e.e.e.e.8.l.k.m.n.n.o..                           ",
"                        p.q.r.r.r.s.t.u.v.w.x.x.y.z.                          ",
"                      . ].A.B.C.D.e.t.E.F.G.H.H.G.y.. .                       ",
"                    . 2.I.J.K.L.M.e.d.N.O.O.O.O.P.K.Q..                       ",
"                    . . . . . . . . R.S.. . . . . . . .                       ",
"                                                                              ",
"                                                                              ",
"                                                                              ",
"                                                                              ",
"                                                                              "};
