/* XPM */
static char * collectibles_xpm[] = {
"50 50 4 1",
" 	c None",
".	c #FAF7F7",
"+	c #000000",
"@	c #11FF00",
"                                                  ",
"                                                  ",
"                                                  ",
"                                                  ",
"                                                  ",
"                                                  ",
"                                                  ",
"                                                  ",
"                                                  ",
"                                                  ",
"                                                  ",
"                                                  ",
"                                                  ",
"                                                  ",
"                                                  ",
"                                                  ",
"                                                  ",
"                     .......                      ",
"                     .+++++.                      ",
"                     .+@@@+.                      ",
"                     .+@@@+.                      ",
"                     .+@@@+.                      ",
"                     .+@@@+.                      ",
"                     .+++++.                      ",
"                     .+@@@+.                      ",
"                     .+++++.                      ",
"                     .+@@@+.                      ",
"                     .+++++.                      ",
"                     .+@@@+.                      ",
"                     .+++++.                      ",
"                     .......                      ",
"                                                  ",
"                                                  ",
"                                                  ",
"                                                  ",
"                                                  ",
"                                                  ",
"                                                  ",
"                                                  ",
"                                                  ",
"                                                  ",
"                                                  ",
"                                                  ",
"                                                  ",
"                                                  ",
"                                                  ",
"                                                  ",
"                                                  ",
"                                                  ",
"                                                  "};
