/* XPM */
static char * ennemy_xpm[] = {
"50 50 3 1",
" 	c None",
".	c #505050",
"+	c #FF0000",
"                                                  ",
"                                                  ",
"                                                  ",
"                                                  ",
"                                                  ",
"                                                  ",
"                                                  ",
"                                                  ",
"                                                  ",
"                                                  ",
"                                                  ",
"                                                  ",
"                                                  ",
"                                                  ",
"                                                  ",
"             .......................              ",
"             .+++++++++++++++++++++.              ",
"             .+++++++++++++++++++++.              ",
"             .+++++++++++++++++++++.              ",
"             .+++++++++++++++++++++.              ",
"             .+++++++++++++++++++++.              ",
"             .+++++++++++++++++++++.              ",
"             .+++++++++++++++++++++.              ",
"             .+++++++++++++++++++++.              ",
"             .+++++++++++++++++++++.              ",
"             .+++++++++++++++++++++.              ",
"             .+++++++++++++++++++++.              ",
"             .+++++++++++++++++++++.              ",
"             .+++++++++++++++++++++.              ",
"             .+++++++++++++++++++++.              ",
"             .+++++++++++++++++++++.              ",
"             .+++++++++++++++++++++.              ",
"             .+++++++++++++++++++++.              ",
"             .+++++++++++++++++++++.              ",
"             .+++++++++++++++++++++.              ",
"             .+++++++++++++++++++++.              ",
"             .+++++++++++++++++++++.              ",
"             .......................              ",
"                                                  ",
"                                                  ",
"                                                  ",
"                                                  ",
"                                                  ",
"                                                  ",
"                                                  ",
"                                                  ",
"                                                  ",
"                                                  ",
"                                                  ",
"                                                  "};
