/* XPM */
static char * exit_xpm[] = {
"50 50 9 1",
" 	c #393939",
".	c #A3A3A3",
"+	c #666666",
"@	c #000000",
"#	c #27FFF9",
"$	c #2881A9",
"%	c #E90E17",
"&	c #F21212",
"*	c #363643",
"                                                  ",
"..................................................",
"..................................................",
"..................................................",
"..................................................",
"..................................................",
"..................................................",
"..................................................",
"                                                  ",
"   ++++++++++++++++++++++++++++++++++++++++++++   ",
"  ++++++..................................++++++  ",
" ++++++.@@@@@@@@@@@@@@@@@@@@@@@@@@@@@@@@@@.++++++ ",
" +++++.@................@.................@.+++++ ",
" ++++.@.................@..................@.++++ ",
" ++++.@.................@..................@.++++ ",
" +++.@..................@...................@.+++ ",
" +++.@.........@@@@@@@@@@@@@@@@@@@..........@.+++ ",
" +++.@.........@#$$$$$$$$$$$$$$$#@..........@.+++ ",
" +++.@.....@@@.@#$$$$$$$$$$$$$$$#@.@@@......@.+++ ",
" +++.@.....@%@.@#$$$$$$$$$$$$$$$#@.@%@......@.+++ ",
" +++.@.....@@@.@#$$$$$$$$$$$$$$$#@.@@@......@.+++ ",
" +++.@.........@#$$$$$$$$$$$$$$$#@..........@.+++ ",
" +++.@.........@#$$$$$$$$$$$$$$$#@..........@.+++ ",
" +++.@.........@#################@..........@.+++ ",
" +++.@.........@@@@@@@@@@@@@@@@@@@..........@.+++ ",
" +++.@...............@@@@@@@................@.+++ ",
" +++.@..................@...................@.+++ ",
" +++.@..................@...................@.+++ ",
"    .@..................@...................@.+++ ",
"  & .@..................@...................@.+++ ",
"    .@..................@...................@.+++ ",
" +++.@..................@...................@.+++ ",
" +++.@..................@...................@.+++ ",
" +++.@..................@...................@.+++ ",
" +++.@..................@...................@.+++ ",
" +++.@..................@...................@.+++ ",
" +++.@..................@...................@.+++ ",
" +++.@..................@...................@.+++ ",
" +++.@..................@...................@.+++ ",
" +++.@..................@...................@.+++ ",
" +++.@..................@...................@.+++ ",
" +++.@..................@...................@.+++ ",
" +++.@..................@...................@.+++ ",
" +++.@..................@...................@.+++ ",
" +++.@..................@...................@.+++ ",
" +++.@**************************************@.+++ ",
" +++.@**************************************@.+++ ",
"  ++.@**************************************@.++  ",
"   +.@**************************************@.+   ",
"     @**************************************@     "};
