/* XPM */
static char * front_wall_window_xpm[] = {
"50 50 5 1",
" 	c #393939",
".	c #A3A3A3",
"+	c #666666",
"@	c #2A2A2A",
"#	c #B7C6C7",
"                                                  ",
"..................................................",
"..................................................",
"..................................................",
"..................................................",
"..................................................",
"..................................................",
"..................................................",
"                                                  ",
"   ++++++++++++++++++++++++++++++++++++++++++++   ",
"  ++++++++++++++++++++++++++++++++++++++++++++++  ",
" ++++++++++++++++++++++++++++++++++++++++++++++++ ",
" +@@@@@@@@@@@@@@@@@@@@@@@@@@@@@@@@@@@@@@@@@@@@@@+ ",
" +@############################################@+ ",
" +@############################################@+ ",
" +@############################################@+ ",
" +@############################################@+ ",
" +@############################################@+ ",
" +@############################################@+ ",
" +@############################################@+ ",
" +@############################################@+ ",
" +@############################################@+ ",
" +@############################################@+ ",
" +@############################################@+ ",
" +@############################################@+ ",
" +@############################################@+ ",
" +@############################################@+ ",
" +@############################################@+ ",
" +@############################################@+ ",
" +@############################################@+ ",
" +@############################################@+ ",
" +@############################################@+ ",
" +@############################################@+ ",
" +@############################################@+ ",
" +@@@@@@@@@@@@@@@@@@@@@@@@@@@@@@@@@@@@@@@@@@@@@@+ ",
" ++++++++++++++++++++++++++++++++++++++++++++++++ ",
" ++++++++++++++++++++++++++++++++++++++++++++++++ ",
" ++++++++++++++++++++++++++++++++++++++++++++++++ ",
" ++++++++++++++++++++++++++++++++++++++++++++++++ ",
" ++++++++++++++++++++++++++++++++++++++++++++++++ ",
" ++++++++++++++++++++++++++++++++++++++++++++++++ ",
" ++++++++++++++++++++++++++++++++++++++++++++++++ ",
" ++++++++++++++++++++++++++++++++++++++++++++++++ ",
" ++++++++++++++++++++++++++++++++++++++++++++++++ ",
" ++++++++++++++++++++++++++++++++++++++++++++++++ ",
" ++++++++++++++++++++++++++++++++++++++++++++++++ ",
" ++++++++++++++++++++++++++++++++++++++++++++++++ ",
"  ++++++++++++++++++++++++++++++++++++++++++++++  ",
"   ++++++++++++++++++++++++++++++++++++++++++++   ",
"                                                  "};
