/* XPM */
static char * left_corner_xpm[] = {
"50 50 5 1",
" 	c None",
".	c #393939",
"+	c #A3A3A3",
"@	c #666666",
"#	c #2A2A2A",
"                   .+++++++++++...................",
"                   .++++++++++++++++++++++++++++++",
"                   .++++++++++++++++++++++++++++++",
"                   .++++++++++++++++++++++++++++++",
"                   .++++++++++++++++++++++++++++++",
"                   ..+++++++++++++++++++++++++++++",
"                   .@.++++++++++++++++++++++++++++",
"                   .@@..++++++++++++++++++++++++++",
"                   .@@@@..........................",
"                   .@@@@@.@@@@@@@@@@@@@@@@@@@@@@@.",
"                   .@@@@@.@@@@@@@@@@@@@@@@@@@@@@@.",
"                   .@@@@@.@@@@@@@@@@@@@@@@@@@@@@@.",
"                   .@@@@@.@@@@@@@@@@@@@@@@@@@@@@@.",
"                   .@@@@@.@@@@@@@@@@@@@@@@@@@@@@@.",
"                   .@@@@@.@@@@@@@@@@@@@@@@@@@@@@@.",
"                   .@@@@@.@@@@@@@@@@@@@@@@@@@@@@@.",
"                   .@@@@@.@@@@@@@@@@@@@@@@@@@@@@@.",
"                   .@@@@@.@@@@@@@@@@@@@@@@@@@@@@@.",
"                   .@@@@@.@@@@@@@@@@@@@@@@@@@@@@@.",
"                   .@@@@@.@@@@@@@@@@@@@@@@@@@@@@@.",
"                   .@@@@@.@@@@@@@@@@@@@@@@@@@@@@@.",
"                   .@@@@@.@@@@@@@@@@@@@@@@@@@@@@@.",
"                   .@@@@@.@@@@@@@@@@@@@@@@@@@@@@@.",
"                   .@@@@@.@@@@@@@@@@@@@@@@@@@@@@@.",
"                   .@@@@@.@@@@@@@@@@@@@@@@@@@@@@@.",
"                   .@@@@@.@@@@@@@@@@@@@@@@@@@@@@@.",
"                   .@@@@@.@@@@@@@@@@@@@@@@@@@@@@@.",
"                   .@@@@@.@@@@@@@@@@@@@@@@@@@@@@@.",
"                   .@@@@@.@@@@@@@@@@@@@@@@@@@@@@@.",
"                   .@@@@@.@@@@@@@@@@@@@@@@@@@@@@@.",
"                   .@@@@@.@@@@@@@@@@@@@@@@@@@@@@@.",
"                   .@@@@@.@@@@@@@@@@@@@@@@@@@@@@@.",
"                   .@@@@@.@@@@@@@@@@@@@@@@@@@@@@@.",
"                   .@@@@@.@@@@@@@@@@@@@@@@@@@@@@@.",
"                   .@@@@@.@@@@@@@@@@@@@@@@@@@@@@@.",
"                   .@@@@@.@@@@@@@@@@@@@@@@@@@@@@@.",
"                   .@@@@@.@@@@@@@@@@@@@@@@@@@@@@@.",
"                   .@@@@@.@@@@@@@@@@@@@@@@@@@@@@@.",
"                   .@@@@@.@@@@@@@@@@@@@@@@@@@@@@@.",
"                   .@@@@@.@@@@@@@@@@@@@@@@@@@@@@@.",
"                   .@@@@@.@@@@@@@@@@@@@@@@@@@@@@@.",
"                   .@@@@@.@@@@@@@@@@@@@@@@@@@@@@@.",
"                   .@@@@@.@@@@@@@@@@@@@@@@@@@@@@@.",
"                   .@@@@@.@@@@@@@@@@@@@@@@@@@@@@@.",
"                   .@@@@@.@@@@@@@@@@@@@@@@@@@@@@@.",
"                   .@@@@@.@@@@@@@@@@@@@@@@@@@@@@@.",
"                   #.@@@@.@@@@@@@@@@@@@@@@@@@@@@@.",
"                     .@@@.@@@@@@@@@@@@@@@@@@@@@@@.",
"                      ..@.@@@@@@@@@@@@@@@@@@@@@@@.",
"                        .........................."};
