/* XPM */
static char * right_corner_xpm[] = {
"50 50 7 1",
" 	c None",
".	c #393939",
"+	c #A3A3A3",
"@	c #A1A1A1",
"#	c #A2A2A2",
"$	c #9E9E9E",
"%	c #666666",
"....................++++@@@@++@.                  ",
"+++++++++++++++++++@++++#@@@++#.                  ",
"++++++++++++++++++++++++++#++++.                  ",
"+++++++++++++++++++++++++#$+++$.                  ",
"++++++++++++++++++++++#@+#++++$.                  ",
"+++++++++++++++++++++++++++++@..                  ",
"+++++++++++++++++++++++++++##.%.                  ",
"+++++++++++++++++++@++++++$..%%.                  ",
"...........................%%%%.                  ",
".%%%%%%%%%%%%%%%%%%%%%%%%%.%%%%.                  ",
".%%%%%%%%%%%%%%%%%%%%%%%%%.%%%%.                  ",
".%%%%%%%%%%%%%%%%%%%%%%%%%.%%%%.                  ",
".%%%%%%%%%%%%%%%%%%%%%%%%%.%%%%.                  ",
".%%%%%%%%%%%%%%%%%%%%%%%%%.%%%%.                  ",
".%%%%%%%%%%%%%%%%%%%%%%%%%.%%%%.                  ",
".%%%%%%%%%%%%%%%%%%%%%%%%%.%%%%.                  ",
".%%%%%%%%%%%%%%%%%%%%%%%%%.%%%%.                  ",
".%%%%%%%%%%%%%%%%%%%%%%%%%.%%%%.                  ",
".%%%%%%%%%%%%%%%%%%%%%%%%%.%%%%.                  ",
".%%%%%%%%%%%%%%%%%%%%%%%%%.%%%%.                  ",
".%%%%%%%%%%%%%%%%%%%%%%%%%.%%%%.                  ",
".%%%%%%%%%%%%%%%%%%%%%%%%%.%%%%.                  ",
".%%%%%%%%%%%%%%%%%%%%%%%%%.%%%%.                  ",
".%%%%%%%%%%%%%%%%%%%%%%%%%.%%%%.                  ",
".%%%%%%%%%%%%%%%%%%%%%%%%%.%%%%.                  ",
".%%%%%%%%%%%%%%%%%%%%%%%%%.%%%%.                  ",
".%%%%%%%%%%%%%%%%%%%%%%%%%.%%%%.                  ",
".%%%%%%%%%%%%%%%%%%%%%%%%%.%%%%.                  ",
".%%%%%%%%%%%%%%%%%%%%%%%%%.%%%%.                  ",
".%%%%%%%%%%%%%%%%%%%%%%%%%.%%%%.                  ",
".%%%%%%%%%%%%%%%%%%%%%%%%%.%%%%.                  ",
".%%%%%%%%%%%%%%%%%%%%%%%%%.%%%%.                  ",
".%%%%%%%%%%%%%%%%%%%%%%%%%.%%%%.                  ",
".%%%%%%%%%%%%%%%%%%%%%%%%%.%%%%.                  ",
".%%%%%%%%%%%%%%%%%%%%%%%%%.%%%%.                  ",
".%%%%%%%%%%%%%%%%%%%%%%%%%.%%%%.                  ",
".%%%%%%%%%%%%%%%%%%%%%%%%%.%%%%.                  ",
".%%%%%%%%%%%%%%%%%%%%%%%%%.%%%%.                  ",
".%%%%%%%%%%%%%%%%%%%%%%%%%.%%%%.                  ",
".%%%%%%%%%%%%%%%%%%%%%%%%%.%%%%.                  ",
".%%%%%%%%%%%%%%%%%%%%%%%%%.%%%%.                  ",
".%%%%%%%%%%%%%%%%%%%%%%%%%.%%%%.                  ",
".%%%%%%%%%%%%%%%%%%%%%%%%%.%%%%.                  ",
".%%%%%%%%%%%%%%%%%%%%%%%%%.%%%%.                  ",
".%%%%%%%%%%%%%%%%%%%%%%%%%.%%%%.                  ",
".%%%%%%%%%%%%%%%%%%%%%%%%%.%%%%.                  ",
".%%%%%%%%%%%%%%%%%%%%%%%%%.%%%.                   ",
".%%%%%%%%%%%%%%%%%%%%%%%%%.%%.                    ",
".%%%%%%%%%%%%%%%%%%%%%%%%%...                     ",
"...........................                       "};
