/* XPM */
static char * right_top_corner_xpm[] = {
"50 50 4 1",
" 	c None",
".	c #393939",
"+	c #A3A3A3",
"@	c #666666",
"............................                      ",
"+++++++++++++++++++++++++++..                     ",
"+++++++++++++++++++++++++++++.                    ",
"++++++++++++++++++++++++++++++..                  ",
"+++++++++++++++++++++++++++++++.                  ",
"+++++++++++++++++++++++++++++++.                  ",
"+++++++++++++++++++++++++++++++.                  ",
"+++++++++++++++++++++++++++++++.                  ",
"................+++++++++++++++.                  ",
"@@@@@@@@@@@@@@@@..+++++++++++++.                  ",
"@@@@@@@@@@@@@@@@@@.++++++++++++.                  ",
"@@@@@@@@@@@@@@@@@@@.+++++++++++.                  ",
"@@@@@@@@@@@@@@@@@@@.+++++++++++.                  ",
"@@@@@@@@@@@@@@@@@@@.+++++++++++.                  ",
"@@@@@@@@@@@@@@@@@@@.+++++++++++.                  ",
"@@@@@@@@@@@@@@@@@@@.+++++++++++.                  ",
"@@@@@@@@@@@@@@@@@@@.+++++++++++.                  ",
"@@@@@@@@@@@@@@@@@@@.+++++++++++.                  ",
"@@@@@@@@@@@@@@@@@@@.+++++++++++.                  ",
"@@@@@@@@@@@@@@@@@@@.+++++++++++.                  ",
"@@@@@@@@@@@@@@@@@@@.+++++++++++.                  ",
"@@@@@@@@@@@@@@@@@@@.+++++++++++.                  ",
"@@@@@@@@@@@@@@@@@@@.+++++++++++.                  ",
"@@@@@@@@@@@@@@@@@@@.+++++++++++.                  ",
"@@@@@@@@@@@@@@@@@@@.+++++++++++.                  ",
"@@@@@@@@@@@@@@@@@@@.+++++++++++.                  ",
"@@@@@@@@@@@@@@@@@@@.+++++++++++.                  ",
"@@@@@@@@@@@@@@@@@@@.+++++++++++.                  ",
"@@@@@@@@@@@@@@@@@@@.+++++++++++.                  ",
"@@@@@@@@@@@@@@@@@@@.+++++++++++.                  ",
"@@@@@@@@@@@@@@@@@@@.+++++++++++.                  ",
"@@@@@@@@@@@@@@@@@@@.+++++++++++.                  ",
"@@@@@@@@@@@@@@@@@@@.+++++++++++.                  ",
"@@@@@@@@@@@@@@@@@@@.+++++++++++.                  ",
"@@@@@@@@@@@@@@@@@@@.+++++++++++.                  ",
"@@@@@@@@@@@@@@@@@@@.+++++++++++.                  ",
"@@@@@@@@@@@@@@@@@@@.+++++++++++.                  ",
"@@@@@@@@@@@@@@@@@@@.+++++++++++.                  ",
"@@@@@@@@@@@@@@@@@@@.+++++++++++.                  ",
"@@@@@@@@@@@@@@@@@@@.+++++++++++.                  ",
"@@@@@@@@@@@@@@@@@@@.+++++++++++.                  ",
"@@@@@@@@@@@@@@@@@@@.+++++++++++.                  ",
"@@@@@@@@@@@@@@@@@@@.+++++++++++.                  ",
"@@@@@@@@@@@@@@@@@@@.+++++++++++.                  ",
"@@@@@@@@@@@@@@@@@@@.+++++++++++.                  ",
"@@@@@@@@@@@@@@@@@@@.+++++++++++.                  ",
"@@@@@@@@@@@@@@@@@@@.+++++++++++.                  ",
"@@@@@@@@@@@@@@@@@@@.+++++++++++.                  ",
"@@@@@@@@@@@@@@@@@@@.+++++++++++.                  ",
"....................+++++++++++.                  "};
