/* XPM */
static char * seconde_indoor_straight_xpm[] = {
"50 50 3 1",
" 	c #000000",
".	c #424242",
"+	c #34343C",
" ...  +++++++++++++++++++++++++++++++++++++   ... ",
" ...  +++++++++++++++++++++++++++++++++++++   ... ",
" ...  +++++++++++++++++++++++++++++++++++++   ... ",
" ...  +++++++++++++++++++++++++++++++++++++   ... ",
" ...  +++++++++++++++++++++++++++++++++++++   ... ",
" ...  +++++++++++++++++++++++++++++++++++++   ... ",
" ...  +++++++++++++++++++++++++++++++++++++   ... ",
" ...  +++++++++++++++++++++++++++++++++++++   ... ",
" ...  +++++++++++++++++++++++++++++++++++++   ... ",
" ...  +++++++++++++++++++++++++++++++++++++   ... ",
" ...  +++++++++++++++++++++++++++++++++++++   ... ",
" ...  +++++++++++++++++++++++++++++++++++++   ... ",
" ...  +++++++++++++++++++++++++++++++++++++   ... ",
" ...  +++++++++++++++++++++++++++++++++++++   ... ",
" ...  +++++++++++++++++++++++++++++++++++++   ... ",
" ...  +++++++++++++++++++++++++++++++++++++   ... ",
" ...  +++++++++++++++++++++++++++++++++++++   ... ",
" ...  +++++++++++++++++++++++++++++++++++++   ... ",
" ...  +++++++++++++++++++++++++++++++++++++   ... ",
" ...  +++++++++++++++++++++++++++++++++++++   ... ",
" ...  +++++++++++++++++++++++++++++++++++++   ... ",
" ...  +++++++++++++++++++++++++++++++++++++   ... ",
" ...  +++++++++++++++++++++++++++++++++++++   ... ",
" ...  +++++++++++++++++++++++++++++++++++++   ... ",
" ...  +++++++++++++++++++++++++++++++++++++   ... ",
" ...  +++++++++++++++++++++++++++++++++++++   ... ",
" ...  +++++++++++++++++++++++++++++++++++++   ... ",
" ...  +++++++++++++++++++++++++++++++++++++   ... ",
" ...  +++++++++++++++++++++++++++++++++++++   ... ",
" ...  +++++++++++++++++++++++++++++++++++++   ... ",
" ...  +++++++++++++++++++++++++++++++++++++   ... ",
" ...  +++++++++++++++++++++++++++++++++++++   ... ",
" ...  +++++++++++++++++++++++++++++++++++++   ... ",
" ...  +++++++++++++++++++++++++++++++++++++   ... ",
" ...  +++++++++++++++++++++++++++++++++++++   ... ",
" ...  +++++++++++++++++++++++++++++++++++++   ... ",
" ...  +++++++++++++++++++++++++++++++++++++   ... ",
" ...  +++++++++++++++++++++++++++++++++++++   ... ",
" ...  +++++++++++++++++++++++++++++++++++++   ... ",
" ...  +++++++++++++++++++++++++++++++++++++   ... ",
" ...  +++++++++++++++++++++++++++++++++++++   ... ",
" ...  +++++++++++++++++++++++++++++++++++++   ... ",
" ...  +++++++++++++++++++++++++++++++++++++   ... ",
" ...  +++++++++++++++++++++++++++++++++++++   ... ",
" ...  +++++++++++++++++++++++++++++++++++++   ... ",
" ...  +++++++++++++++++++++++++++++++++++++   ... ",
" ...  +++++++++++++++++++++++++++++++++++++   ... ",
" ...  +++++++++++++++++++++++++++++++++++++   ... ",
" ...  +++++++++++++++++++++++++++++++++++++   ... ",
" ...                                          ... "};
