/* XPM */
static char * straight_xpm[] = {
"50 50 7 1",
" 	c #000000",
".	c #B7C6C7",
"+	c #393939",
"@	c #202424",
"#	c #A3A3A3",
"$	c #080A0A",
"%	c #121515",
"                                                  ",
" .......................+++...................... ",
" .@...................++###++..................$. ",
" ..................+++#######+++................. ",
" ..................+###########+................. ",
" ..................+###########+................. ",
" ..................+###########+................. ",
" ..................+###########+................. ",
" ..................+###########+................. ",
" ..................+###########+................. ",
" ..................+###########+................. ",
" ..................+###########+................. ",
" ..................+###########+................. ",
" ..................+###########+................. ",
" ..................+###########+................. ",
" ..................+###########+................. ",
" ..................+###########+................. ",
" ..................+###########+................. ",
" ..................+###########+................. ",
" ..................+###########+................. ",
" ..................+###########+................. ",
" ..................+###########+................. ",
" ..................+###########+................. ",
" ..................+###########+................. ",
" ..................+###########+................. ",
" ..................+###########+................. ",
" ..................+###########+................. ",
" ..................+###########+................. ",
" ..................+###########+................. ",
" ..................+###########+................. ",
" ..................+###########+................. ",
" ..................+###########+................. ",
" ..................+###########+................. ",
" ..................+###########+................. ",
" ..................+###########+................. ",
" ..................+###########+................. ",
" ..................+###########+................. ",
" ..................+###########+................. ",
" ..................+###########+................. ",
" ..................+###########+................. ",
" ..................+###########+................. ",
" ..................+###########+................. ",
" ..................+###########+................. ",
" ..................+###########+................. ",
" ..................+###########+................. ",
" ..................+###########+................. ",
" ..................+###########+................. ",
" .@................+###########+...............%. ",
" ..................+###########+................. ",
"                   +###########+                  "};
