/* XPM */
static char * top_left_xpm[] = {
"50 50 5 1",
" 	c #393939",
".	c #A3A3A3",
"+	c #000000",
"@	c #B7C6C7",
"#	c #666666",
"                    ...........             ++++++",
"............................................  @@@+",
"..............................................  @+",
"................................................  ",
"................................................. ",
"................................................  ",
"..............................................  # ",
"............................................  # # ",
"                                            # # # ",
"   ####################################### ## # # ",
"  ######################################## ## # # ",
" ######################################### ## # # ",
" ######################################### ## # # ",
" ######################################### ## # # ",
" ######################################### ## # # ",
" ######################################### ## # # ",
" ######################################### ## # # ",
" ######################################### ## # # ",
" ######################################### ## # # ",
" ######################################### ## # # ",
" ######################################### ## # # ",
" ######################################### ## # # ",
" ######################################### ## # # ",
" ######################################### ## # # ",
" ######################################### ## # # ",
" ######################################### ## # # ",
" ######################################### ## # # ",
" ######################################### ## # # ",
" ######################################### ## # # ",
" ######################################### ## # # ",
" ######################################### ## # # ",
" ######################################### ## # # ",
" ######################################### ## # # ",
" ######################################### ## # # ",
" ######################################### ## # # ",
" ######################################### ## # # ",
" ######################################### ## # # ",
" ######################################### ## # # ",
" ######################################### ## # # ",
" ######################################### ## # # ",
" ######################################### ## # # ",
" ######################################### ## # # ",
" ######################################### ## # # ",
" ######################################### ## # # ",
" ######################################### ## # # ",
" ######################################### ## # # ",
" ######################################### ## #   ",
"  ######################################## ##   @+",
"   ####################################### #  @@@+",
"                                            ++++++"};
