/* XPM */
static char * top_right_xpm[] = {
"50 49 5 1",
" 	c #000000",
".	c #393939",
"+	c #A3A3A3",
"@	c #B7C6C7",
"#	c #666666",
"      ..............+++++++++++...................",
" @@@..++++++++++++++++++++++++++++++++++++++++++++",
" @..++++++++++++++++++++++++++++++++++++++++++++++",
"..++++++++++++++++++++++++++++++++++++++++++++++++",
".+++++++++++++++++++++++++++++++++++++++++++++++++",
"..++++++++++++++++++++++++++++++++++++++++++++++++",
".#..++++++++++++++++++++++++++++++++++++++++++++++",
".#.#..++++++++++++++++++++++++++++++++++++++++++++",
".#.#.#............................................",
".#.#.##.#######################################...",
".#.#.##.########################################..",
".#.#.##.#########################################.",
".#.#.##.#########################################.",
".#.#.##.#########################################.",
".#.#.##.#########################################.",
".#.#.##.#########################################.",
".#.#.##.#########################################.",
".#.#.##.#########################################.",
".#.#.##.#########################################.",
".#.#.##.#########################################.",
".#.#.##.#########################################.",
".#.#.##.#########################################.",
".#.#.##.#########################################.",
".#.#.##.#########################################.",
".#.#.##.#########################################.",
".#.#.##.#########################################.",
".#.#.##.#########################################.",
".#.#.##.#########################################.",
".#.#.##.#########################################.",
".#.#.##.#########################################.",
".#.#.##.#########################################.",
".#.#.##.#########################################.",
".#.#.##.#########################################.",
".#.#.##.#########################################.",
".#.#.##.#########################################.",
".#.#.##.#########################################.",
".#.#.##.#########################################.",
".#.#.##.#########################################.",
".#.#.##.#########################################.",
".#.#.##.#########################################.",
".#.#.##.#########################################.",
".#.#.##.#########################################.",
".#.#.##.#########################################.",
".#.#.##.#########################################.",
".#.#.##.#########################################.",
".#.#.##.#########################################.",
"...#.##.#########################################.",
" @...##.########################################..",
" @@@..#.#######################################..."};
