/* XPM */
static char * toward_wall_left_empty_xpm[] = {
"50 50 6 1",
" 	c None",
".	c #393939",
"+	c #A3A3A3",
"@	c #000000",
"#	c #363643",
"$	c #080A0A",
"                   .+++++++++++.@@@@@@@@@@@@@@@@@@",
"                   .+++++++++++.#################@",
"                   .+++++++++++.###############$#@",
"                   .+++++++++++.#################@",
"                   .+++++++++++.#################@",
"                   .+++++++++++.#################@",
"                   .+++++++++++.#################@",
"                   .+++++++++++.#################@",
"                   .+++++++++++.#################@",
"                   .+++++++++++.#################@",
"                   .+++++++++++.#################@",
"                   .+++++++++++.#################@",
"                   .+++++++++++.#################@",
"                   .+++++++++++.#################@",
"                   .+++++++++++.#################@",
"                   .+++++++++++.#################@",
"                   .+++++++++++.#################@",
"                   .+++++++++++.#################@",
"                   .+++++++++++.#################@",
"                   .+++++++++++.#################@",
"                   .+++++++++++.#################@",
"                   .+++++++++++.#################@",
"                   .+++++++++++.#################@",
"                   .+++++++++++.#################@",
"                   .+++++++++++.#################@",
"                   .+++++++++++.#################@",
"                   .+++++++++++.#################@",
"                   .+++++++++++.#################@",
"                   .+++++++++++.#################@",
"                   .+++++++++++.#################@",
"                   .+++++++++++.#################@",
"                   .+++++++++++.#################@",
"                   .+++++++++++.#################@",
"                   .+++++++++++.#################@",
"                   .+++++++++++.#################@",
"                   .+++++++++++.#################@",
"                   .+++++++++++.#################@",
"                   .+++++++++++.#################@",
"                   .+++++++++++.#################@",
"                   .+++++++++++.#################@",
"                   .+++++++++++.#################@",
"                   .+++++++++++.#################@",
"                   .+++++++++++.#################@",
"                   .+++++++++++.#################@",
"                   .+++++++++++.#################@",
"                   .+++++++++++.#################@",
"                   .+++++++++++.#################@",
"                   .+++++++++++.###############$#@",
"                   .+++++++++++.#################@",
"                   .+++++++++++.@@@@@@@@@@@@@@@@@@"};
