/* XPM */
static char * toward_wall_xpm[] = {
"50 50 3 1",
" 	c None",
".	c #393939",
"+	c #A3A3A3",
"                   .+++++++++++.                  ",
"                   .+++++++++++.                  ",
"                   .+++++++++++.                  ",
"                   .+++++++++++.                  ",
"                   .+++++++++++.                  ",
"                   .+++++++++++.                  ",
"                   .+++++++++++.                  ",
"                   .+++++++++++.                  ",
"                   .+++++++++++.                  ",
"                   .+++++++++++.                  ",
"                   .+++++++++++.                  ",
"                   .+++++++++++.                  ",
"                   .+++++++++++.                  ",
"                   .+++++++++++.                  ",
"                   .+++++++++++.                  ",
"                   .+++++++++++.                  ",
"                   .+++++++++++.                  ",
"                   .+++++++++++.                  ",
"                   .+++++++++++.                  ",
"                   .+++++++++++.                  ",
"                   .+++++++++++.                  ",
"                   .+++++++++++.                  ",
"                   .+++++++++++.                  ",
"                   .+++++++++++.                  ",
"                   .+++++++++++.                  ",
"                   .+++++++++++.                  ",
"                   .+++++++++++.                  ",
"                   .+++++++++++.                  ",
"                   .+++++++++++.                  ",
"                   .+++++++++++.                  ",
"                   .+++++++++++.                  ",
"                   .+++++++++++.                  ",
"                   .+++++++++++.                  ",
"                   .+++++++++++.                  ",
"                   .+++++++++++.                  ",
"                   .+++++++++++.                  ",
"                   .+++++++++++.                  ",
"                   .+++++++++++.                  ",
"                   .+++++++++++.                  ",
"                   .+++++++++++.                  ",
"                   .+++++++++++.                  ",
"                   .+++++++++++.                  ",
"                   .+++++++++++.                  ",
"                   .+++++++++++.                  ",
"                   .+++++++++++.                  ",
"                   .+++++++++++.                  ",
"                   .+++++++++++.                  ",
"                   .+++++++++++.                  ",
"                   .+++++++++++.                  ",
"                   .+++++++++++.                  "};
