/* XPM */
static char * toward_wall_right_empty_xpm[] = {
"50 50 5 1",
" 	c None",
".	c #000000",
"+	c #393939",
"@	c #A3A3A3",
"#	c #363643",
"...................+@@@@@@@@@@@+                  ",
".##################+@@@@@@@@@@@+                  ",
".#.################+@@@@@@@@@@@+                  ",
".##################+@@@@@@@@@@@+                  ",
".##################+@@@@@@@@@@@+                  ",
".##################+@@@@@@@@@@@+                  ",
".##################+@@@@@@@@@@@+                  ",
".##################+@@@@@@@@@@@+                  ",
".##################+@@@@@@@@@@@+                  ",
".##################+@@@@@@@@@@@+                  ",
".##################+@@@@@@@@@@@+                  ",
".##################+@@@@@@@@@@@+                  ",
".##################+@@@@@@@@@@@+                  ",
".##################+@@@@@@@@@@@+                  ",
".##################+@@@@@@@@@@@+                  ",
".##################+@@@@@@@@@@@+                  ",
".##################+@@@@@@@@@@@+                  ",
".##################+@@@@@@@@@@@+                  ",
".##################+@@@@@@@@@@@+                  ",
".##################+@@@@@@@@@@@+                  ",
".##################+@@@@@@@@@@@+                  ",
".##################+@@@@@@@@@@@+                  ",
".##################+@@@@@@@@@@@+                  ",
".##################+@@@@@@@@@@@+                  ",
".##################+@@@@@@@@@@@+                  ",
".##################+@@@@@@@@@@@+                  ",
".##################+@@@@@@@@@@@+                  ",
".##################+@@@@@@@@@@@+                  ",
".##################+@@@@@@@@@@@+                  ",
".##################+@@@@@@@@@@@+                  ",
".##################+@@@@@@@@@@@+                  ",
".##################+@@@@@@@@@@@+                  ",
".##################+@@@@@@@@@@@+                  ",
".##################+@@@@@@@@@@@+                  ",
".##################+@@@@@@@@@@@+                  ",
".##################+@@@@@@@@@@@+                  ",
".##################+@@@@@@@@@@@+                  ",
".##################+@@@@@@@@@@@+                  ",
".##################+@@@@@@@@@@@+                  ",
".##################+@@@@@@@@@@@+                  ",
".##################+@@@@@@@@@@@+                  ",
".##################+@@@@@@@@@@@+                  ",
".##################+@@@@@@@@@@@+                  ",
".##################+@@@@@@@@@@@+                  ",
".##################+@@@@@@@@@@@+                  ",
".##################+@@@@@@@@@@@+                  ",
".##################+@@@@@@@@@@@+                  ",
".#.################+@@@@@@@@@@@+                  ",
".##################+@@@@@@@@@@@+                  ",
"...................+@@@@@@@@@@@+                  "};
