/* XPM */
static char * wall_right_xpm[] = {
"50 50 3 1",
" 	c #393939",
".	c #A3A3A3",
"+	c #2A2A2A",
" ........... +++++++++++++++++++++++++++++++++++++",
" ........... +++++++++++++++++++++++++++++++++++++",
" ........... +++++++++++++++++++++++++++++++++++++",
" ........... +++++++++++++++++++++++++++++++++++++",
" ........... +++++++++++++++++++++++++++++++++++++",
" ........... +++++++++++++++++++++++++++++++++++++",
" ........... +++++++++++++++++++++++++++++++++++++",
" ........... +++++++++++++++++++++++++++++++++++++",
" ........... +++++++++++++++++++++++++++++++++++++",
" ........... +++++++++++++++++++++++++++++++++++++",
" ........... +++++++++++++++++++++++++++++++++++++",
" ........... +++++++++++++++++++++++++++++++++++++",
" ........... +++++++++++++++++++++++++++++++++++++",
" ........... +++++++++++++++++++++++++++++++++++++",
" ........... +++++++++++++++++++++++++++++++++++++",
" ........... +++++++++++++++++++++++++++++++++++++",
" ........... +++++++++++++++++++++++++++++++++++++",
" ........... +++++++++++++++++++++++++++++++++++++",
" ........... +++++++++++++++++++++++++++++++++++++",
" ........... +++++++++++++++++++++++++++++++++++++",
" ........... +++++++++++++++++++++++++++++++++++++",
" ........... +++++++++++++++++++++++++++++++++++++",
" ........... +++++++++++++++++++++++++++++++++++++",
" ........... +++++++++++++++++++++++++++++++++++++",
" ........... +++++++++++++++++++++++++++++++++++++",
" ........... +++++++++++++++++++++++++++++++++++++",
" ........... +++++++++++++++++++++++++++++++++++++",
" ........... +++++++++++++++++++++++++++++++++++++",
" ........... +++++++++++++++++++++++++++++++++++++",
" ........... +++++++++++++++++++++++++++++++++++++",
" ........... +++++++++++++++++++++++++++++++++++++",
" ........... +++++++++++++++++++++++++++++++++++++",
" ........... +++++++++++++++++++++++++++++++++++++",
" ........... +++++++++++++++++++++++++++++++++++++",
" ........... +++++++++++++++++++++++++++++++++++++",
" ........... +++++++++++++++++++++++++++++++++++++",
" ........... +++++++++++++++++++++++++++++++++++++",
" ........... +++++++++++++++++++++++++++++++++++++",
" ........... +++++++++++++++++++++++++++++++++++++",
" ........... +++++++++++++++++++++++++++++++++++++",
" ........... +++++++++++++++++++++++++++++++++++++",
" ........... +++++++++++++++++++++++++++++++++++++",
" ........... +++++++++++++++++++++++++++++++++++++",
" ........... +++++++++++++++++++++++++++++++++++++",
" ........... +++++++++++++++++++++++++++++++++++++",
" ........... +++++++++++++++++++++++++++++++++++++",
" ........... +++++++++++++++++++++++++++++++++++++",
" ........... +++++++++++++++++++++++++++++++++++++",
" ........... +++++++++++++++++++++++++++++++++++++",
" ........... +++++++++++++++++++++++++++++++++++++"};
