/* XPM */
static char * wall_left_xpm[] = {
"50 50 3 1",
" 	c #2A2A2A",
".	c #393939",
"+	c #A3A3A3",
"                                     .+++++++++++.",
"                                     .+++++++++++.",
"                                     .+++++++++++.",
"                                     .+++++++++++.",
"                                     .+++++++++++.",
"                                     .+++++++++++.",
"                                     .+++++++++++.",
"                                     .+++++++++++.",
"                                     .+++++++++++.",
"                                     .+++++++++++.",
"                                     .+++++++++++.",
"                                     .+++++++++++.",
"                                     .+++++++++++.",
"                                     .+++++++++++.",
"                                     .+++++++++++.",
"                                     .+++++++++++.",
"                                     .+++++++++++.",
"                                     .+++++++++++.",
"                                     .+++++++++++.",
"                                     .+++++++++++.",
"                                     .+++++++++++.",
"                                     .+++++++++++.",
"                                     .+++++++++++.",
"                                     .+++++++++++.",
"                                     .+++++++++++.",
"                                     .+++++++++++.",
"                                     .+++++++++++.",
"                                     .+++++++++++.",
"                                     .+++++++++++.",
"                                     .+++++++++++.",
"                                     .+++++++++++.",
"                                     .+++++++++++.",
"                                     .+++++++++++.",
"                                     .+++++++++++.",
"                                     .+++++++++++.",
"                                     .+++++++++++.",
"                                     .+++++++++++.",
"                                     .+++++++++++.",
"                                     .+++++++++++.",
"                                     .+++++++++++.",
"                                     .+++++++++++.",
"                                     .+++++++++++.",
"                                     .+++++++++++.",
"                                     .+++++++++++.",
"                                     .+++++++++++.",
"                                     .+++++++++++.",
"                                     .+++++++++++.",
"                                     .+++++++++++.",
"                                     .+++++++++++.",
"                                     .+++++++++++."};
