/* XPM */
static char * wall_4_xpm[] = {
"50 50 3 1",
" 	c #393939",
".	c #A3A3A3",
"+	c #666666",
"                    ...........                   ",
"..................................................",
"..................................................",
"..................................................",
"..................................................",
"..................................................",
"..................................................",
"..................................................",
"                    ...........                   ",
"   ++++++++++++++++ ........... +++++++++++++++   ",
"  +++++++++++++++++ ........... ++++++++++++++++  ",
" ++++++++++++++++++ ........... +++++++++++++++++ ",
" ++++++++++++++++++ ........... +++++++++++++++++ ",
" ++++++++++++++++++ ........... +++++++++++++++++ ",
" ++++++++++++++++++ ........... +++++++++++++++++ ",
" ++++++++++++++++++ ........... +++++++++++++++++ ",
" ++++++++++++++++++ ........... +++++++++++++++++ ",
" ++++++++++++++++++ ........... +++++++++++++++++ ",
" ++++++++++++++++++ ........... +++++++++++++++++ ",
" ++++++++++++++++++ ........... +++++++++++++++++ ",
" ++++++++++++++++++ ........... +++++++++++++++++ ",
" ++++++++++++++++++ ........... +++++++++++++++++ ",
" ++++++++++++++++++ ........... +++++++++++++++++ ",
" ++++++++++++++++++ ........... +++++++++++++++++ ",
" ++++++++++++++++++ ........... +++++++++++++++++ ",
" ++++++++++++++++++ ........... +++++++++++++++++ ",
" ++++++++++++++++++ ........... +++++++++++++++++ ",
" ++++++++++++++++++ ........... +++++++++++++++++ ",
" ++++++++++++++++++ ........... +++++++++++++++++ ",
" ++++++++++++++++++ ........... +++++++++++++++++ ",
" ++++++++++++++++++ ........... +++++++++++++++++ ",
" ++++++++++++++++++ ........... +++++++++++++++++ ",
" ++++++++++++++++++ ........... +++++++++++++++++ ",
" ++++++++++++++++++ ........... +++++++++++++++++ ",
" ++++++++++++++++++ ........... +++++++++++++++++ ",
" ++++++++++++++++++ ........... +++++++++++++++++ ",
" ++++++++++++++++++ ........... +++++++++++++++++ ",
" ++++++++++++++++++ ........... +++++++++++++++++ ",
" ++++++++++++++++++ ........... +++++++++++++++++ ",
" ++++++++++++++++++ ........... +++++++++++++++++ ",
" ++++++++++++++++++ ........... +++++++++++++++++ ",
" ++++++++++++++++++ ........... +++++++++++++++++ ",
" ++++++++++++++++++ ........... +++++++++++++++++ ",
" ++++++++++++++++++ ........... +++++++++++++++++ ",
" ++++++++++++++++++ ........... +++++++++++++++++ ",
" ++++++++++++++++++ ........... +++++++++++++++++ ",
" ++++++++++++++++++ ........... +++++++++++++++++ ",
"  +++++++++++++++++ ........... ++++++++++++++++  ",
"   ++++++++++++++++ ........... +++++++++++++++   ",
"                    ...........                   "};
